<svg xmlns="http://www.w3.org/2000/svg" xmlns:xlink="http://www.w3.org/1999/xlink" id="Layer_1" x="0" y="0" enable-background="new 0 0 389.6 389.6" version="1.1" viewBox="0 0 389.6 389.6" xml:space="preserve"><style type="text/css">.st0{fill:#4b5aa7}.st1{fill:#f7cfa2}.st2{fill:#bdbdbe}.st3{fill:#646b79}.st4{fill:#dededf}</style><g><path d="M389.6,194.8c0,107.6-87.2,194.8-194.8,194.8S0,302.4,0,194.8C0,87.2,87.2,0,194.8,0S389.6,87.2,389.6,194.8 L389.6,194.8z M389.6,194.8" class="st0"/><path d="M389.6,194.8c0-65.4-32.2-122.9-81.4-158.2c-1.3,2.1-2.6,4.2-3.4,6.5c-5.2,15-60.2-0.8-55,110 c0,0-1.8,9.6-8.8,14.3c-7,4.7-25.7,33.7-15,69l-3.1,11.4c0,0-10.4-10.9-48.5-18.9c-38.4-8-60.4-87.7-60.4-87.7l-26.2,67.7 c0,0,47.2,94.7,124.2,141.6c0,0,22,23.1,32.7,24.9c10.6,1.8,47.7-33.7,62-65.6c0,0,53.2-55,53.2-106.3c0,0,20.5,28.8,17.4,60.2 C385.2,242,389.6,218.9,389.6,194.8L389.6,194.8z M389.6,194.8" class="st1"/><path d="M211.9,147.1c0,47-38.1,85.1-85.1,85.1c-47,0-85.1-38.1-85.1-85.1c0-47,38.1-85.1,85.1-85.1 C173.8,62,211.9,100.1,211.9,147.1L211.9,147.1z M211.9,147.1" class="st2"/><path d="M188.6,147.1c0,34.1-27.6,61.7-61.7,61.7c-34.1,0-61.7-27.6-61.7-61.7c0-34.1,27.6-61.7,61.7-61.7 C160.9,85.3,188.6,113,188.6,147.1L188.6,147.1z M188.6,147.1" class="st3"/><path d="M141.1,147.1c0,7.9-6.4,14.3-14.3,14.3c-7.9,0-14.3-6.4-14.3-14.3c0-7.9,6.4-14.3,14.3-14.3 C134.7,132.8,141.1,139.2,141.1,147.1L141.1,147.1z M141.1,147.1" class="st4"/></g></svg>