<svg xmlns="http://www.w3.org/2000/svg" xmlns:xlink="http://www.w3.org/1999/xlink" id="Layer_1" x="0" y="0" enable-background="new 0 0 397 397.9" version="1.1" viewBox="0 0 397 397.9" xml:space="preserve"><style type="text/css">.st0{clip-path:url(#SVGID_2_);fill:#a076ab}.st1{fill:#ebf1f2}.st2{fill:#d38957}.st3{fill:#c18053}.st4{fill:#ba634f}.st5{fill:#aa5b4b}.st6{fill:#33160a}.st7{fill:#714e7c}.st8{fill:#a076ab}</style><g><g><defs><rect id="SVGID_1_" width="397" height="397.9"/></defs><clipPath id="SVGID_2_"><use overflow="visible" xlink:href="#SVGID_1_"/></clipPath><path d="M0,198.5C0,88.9,88.9,0,198.5,0C308.1,0,397,88.9,397,198.5C397,308.1,308.1,397,198.5,397 C88.9,397,0,308.1,0,198.5L0,198.5z M0,198.5" class="st0"/></g><path d="M155.1,296.1l1.8,16.2l41.5,10.4l41.4-10.4l1.9-16.2H155.1z M155.1,296.1" class="st1"/><path d="M174.3,306.8c21.5,12,45.9,25.4,52.2,26.6c26.2,4.6,45.6,17.8,43.4,23c0,0-62.1-9-107.6-18.2 C144.7,334.7,157.6,297.5,174.3,306.8L174.3,306.8z M174.3,306.8" class="st2"/><path d="M174.3,306.8c-16.7-9.4-31.7-17.8-35.2-19.2c-13.2-5-44.1-16.6-51,6.4c-7,23,16.6,27.4,33.4,33.9 c8.2,3.1,23.3,6.7,40.9,10.2C164.9,327.2,169,316.6,174.3,306.8L174.3,306.8z M174.3,306.8" class="st1"/><path d="M222.6,306.8c-21.5,12-45.9,25.4-52.2,26.6c-26.2,4.6-45.6,17.8-43.4,23c0,0,62.1-9,107.6-18.2 C252.2,334.7,239.3,297.5,222.6,306.8L222.6,306.8z M222.6,306.8" class="st2"/><path d="M222.6,306.8c16.7-9.4,31.7-17.8,35.2-19.2c13.2-5,44.1-16.6,51,6.4c7,23-16.6,27.4-33.4,33.9 c-8.2,3.1-23.3,6.7-40.9,10.2C232.1,327.2,228,316.6,222.6,306.8L222.6,306.8z M222.6,306.8" class="st1"/><path d="M239.9,190.7c3-18-11.8-50.8-11.8-50.8c-7.1-0.9-14.3-1.2-19.9-1.2h-19.7c-5.6,0.1-12.8,0.3-19.8,1.2 c0,0-14.7,32.8-11.8,50.8c2.7,16.8,7.5,41.4-1.8,105.4h86.7C232.4,232.1,237.2,207.5,239.9,190.7L239.9,190.7z M239.9,190.7" class="st1"/><path d="M99.4,281.8l-36.6-22.2l4.7-2.7l30.8,11.4l26.2-36.6c5.5-14.4,4.7-78.3,19-85.8c10.2-5.4,25.4-6,25.4-6 s-6.7,35.7-10.8,35.8c-4.1,0.2-3.4,11.3-6.9,26.2c-1.6,14.1-2.7,25-5.8,34.1L99.4,281.8z M99.4,281.8" class="st2"/><path d="M104.2,269.6L92,268.3l4.4-10.8l-7-3.8l2.3-3l10.8,2.6L104.2,269.6z M104.2,269.6" class="st2"/><path d="M78.6,266l6.9,0.9l2.7-9l5.9-2.2l-0.7-3.3l-8.3,0.2L78.6,266z M78.6,266" class="st2"/><path d="M297.6,281.8l36.6-22.2l-4.7-2.7l-30.8,11.4l-26.2-36.6c-5.5-14.4-4.7-78.3-19-85.8c-10.2-5.4-25.4-6-25.4-6 s6.7,35.7,10.8,35.8c4.1,0.2,3.4,11.3,6.9,26.2c1.6,14.1,2.7,25,5.8,34.1L297.6,281.8z M297.6,281.8" class="st2"/><path d="M292.8,269.6l12.2-1.3l-4.4-10.8l7-3.8l-2.3-3l-10.8,2.6L292.8,269.6z M292.8,269.6" class="st2"/><path d="M318.4,266l-6.9,0.9l-2.7-9l-5.9-2.2l0.7-3.3l8.3,0.2L318.4,266z M318.4,266" class="st2"/><path d="M211.7,120.7h-26.5c4.2,12.5,0.3,18.2,0.3,18.2s0.8,8.2,13,8.2c12.2,0,12.9-8.2,12.9-8.2 S207.5,133.1,211.7,120.7L211.7,120.7z M211.7,120.7" class="st3"/><path d="M225.6,84.2c0-31.4-12.2-38.7-27.1-38.7c-15,0-27.2,7.2-27.2,38.7c0,10.6,1.9,19,4.8,25.4 c6.2,14.2,17.1,19.1,22.4,19.1c5.3,0,16.2-5,22.4-19.1C223.7,103.3,225.6,95,225.6,84.2L225.6,84.2z M225.6,84.2" class="st2"/><path d="M206.1,115.9c0,0-3.4,1.8-7.7,1.8c-4.2,0-7.7-1.8-7.7-1.8c0-0.5,2.4-3.3,4.1-3.5c1-0.2,3.6,0.9,3.6,0.9 s2.6-1,3.5-0.9C203.7,112.6,206.1,115.9,206.1,115.9L206.1,115.9z M206.1,115.9" class="st4"/><path d="M206.1,115.9c0,0-3.4,3.1-7.7,3.1c-4.2,0-7.7-3.1-7.7-3.1s0.8-1,5.3-1.2c0.7-0.1,1.8,0.6,2.4,0.6 c0.6,0,1.4-0.6,2.1-0.6C205.2,115,206.1,115.9,206.1,115.9L206.1,115.9z M206.1,115.9" class="st5"/><path d="M184.2,47.1c0-5.4,6.4-9.8,14.3-9.8c7.9,0,14.3,4.4,14.3,9.8c0,5.4-6.4,9.8-14.3,9.8 C190.6,56.9,184.2,52.6,184.2,47.1L184.2,47.1z M184.2,47.1" class="st6"/><path d="M226.6,85.6c0-31.4-8.6-40-28.2-40c-19.5,0-28.2,8.6-28.2,40c0,0,41.8-9,41.8-20.5 C212.1,76.6,226.6,85.6,226.6,85.6L226.6,85.6z M226.6,85.6" class="st6"/><path d="M168.6,95.4c1.4,8.6,3.3,9,5.9,8.6l-2.8-18.6C169.2,85.7,167.2,86.8,168.6,95.4L168.6,95.4z M168.6,95.4" class="st2"/><path d="M225.1,85.2l-2.8,18.6c2.6,0.5,4.4,0.1,5.9-8.6C229.7,86.8,227.8,85.7,225.1,85.2L225.1,85.2z M225.1,85.2" class="st2"/><path d="M173.4,87c-0.2-1-0.2-1.8-0.2-2.4c0-1,0.2-1.6,0.2-1.6l-3.2,1.2v1.4c0,0,0.3-0.1,1-0.3h-0.1 c0.4,0.7,1,1.9,1.5,3.6C172.6,88.9,173.9,89.8,173.4,87L173.4,87z M173.4,87" class="st6"/><path d="M223.6,84.6c0,0.6,0,1.5-0.2,2.4c-0.5,2.9,0.8,1.9,0.8,1.9c0.6-1.7,1-2.8,1.5-3.6c0.6,0.2,0.9,0.3,0.9,0.3 v-1.4l-3.2-1.2C223.4,83,223.5,83.6,223.6,84.6" class="st6"/><path d="M214,47.7c0,8.6-6.9,15.5-15.5,15.5c-8.6,0-15.5-6.9-15.5-15.5c0-8.6,6.9-15.5,15.5-15.5 C207.1,32.2,214,39.1,214,47.7L214,47.7z M214,47.7" class="st7"/><path d="M209.4,47.7c0,6-4.9,10.9-10.9,10.9c-6,0-10.9-4.9-10.9-10.9c0-6,4.9-10.9,10.9-10.9 C204.5,36.8,209.4,41.7,209.4,47.7L209.4,47.7z M209.4,47.7" class="st8"/></g></svg>