<svg xmlns="http://www.w3.org/2000/svg" xmlns:xlink="http://www.w3.org/1999/xlink" id="Isolation_Mode" x="0" y="0" enable-background="new 0 0 205.2 204.3" version="1.1" viewBox="0 0 205.2 204.3" xml:space="preserve"><style type="text/css">.st0{stroke:#2b2b28;stroke-width:2;stroke-miterlimit:10}.st0,.st1{fill:#eac19b}.st2{fill:#2b2b28}.st3,.st4{clip-path:url(#SVGID_2_);fill:#063}.st4{fill:#016733}.st5{fill:#046833}.st5,.st6,.st7,.st8,.st9{clip-path:url(#SVGID_2_)}.st6{fill:#076833}.st7{fill:#0a6933}.st8{fill:#0d6a33}.st9{fill:#106b33}.st10{fill:#126b33}.st10,.st11,.st12,.st13,.st14{clip-path:url(#SVGID_2_)}.st11{fill:#146c33}.st12{fill:#166d33}.st13{fill:#186e33}.st14{fill:#1a6e34}.st15{fill:#1c6f34}.st15,.st16,.st17,.st18,.st19{clip-path:url(#SVGID_2_)}.st16{fill:#1e7034}.st17{fill:#207134}.st18{fill:#217134}.st19{fill:#237234}.st20{fill:#247334}.st20,.st21,.st22,.st23,.st24{clip-path:url(#SVGID_2_)}.st21{fill:#267434}.st22{fill:#277434}.st23{fill:#297534}.st24{fill:#2a7634}.st25{fill:#2c7734}.st25,.st26,.st27,.st28,.st29{clip-path:url(#SVGID_2_)}.st26{fill:#2d7834}.st27{fill:#2f7834}.st28{fill:#307934}.st29{fill:#327a34}.st30{fill:#337b34}.st30,.st31,.st32,.st33,.st34{clip-path:url(#SVGID_2_)}.st31{fill:#347c34}.st32{fill:#367d34}.st33{fill:#377d34}.st34{fill:#387e34}.st35{fill:#3a7f34}.st35,.st36,.st37,.st38,.st39{clip-path:url(#SVGID_2_)}.st36{fill:#3b8034}.st37{fill:#3c8134}.st38{fill:#3e8233}.st39{fill:#3f8233}.st40{fill:#408333}.st40,.st41,.st42,.st43,.st44{clip-path:url(#SVGID_2_)}.st41{fill:#428433}.st42{fill:#438533}.st43{fill:#448633}.st44{fill:#468733}.st45{fill:#478833}.st45,.st46,.st47,.st48,.st49{clip-path:url(#SVGID_2_)}.st46{fill:#488833}.st47{fill:#498933}.st48{fill:#4b8a33}.st49{fill:#4c8b33}.st50{fill:#4d8c32}.st50,.st51,.st52,.st53,.st54{clip-path:url(#SVGID_2_)}.st51{fill:#4e8d32}.st52{fill:#508e32}.st53{fill:#518e32}.st54{fill:#528f32}.st55{fill:#549032}.st55,.st56,.st57,.st58,.st59{clip-path:url(#SVGID_2_)}.st56{fill:#559132}.st57{fill:#569231}.st58{fill:#589331}.st59{fill:#599431}.st60{fill:#5a9531}.st60,.st61,.st62,.st63,.st64{clip-path:url(#SVGID_2_)}.st61{fill:#5c9631}.st62{fill:#5d9730}.st63{fill:#5e9830}.st64{fill:#609830}.st65{fill:#619930}.st65,.st66,.st67,.st68,.st69{clip-path:url(#SVGID_2_)}.st66{fill:#629a30}.st67{fill:#649b2f}.st68{fill:#659c2f}.st69{fill:#669d2f}.st70{fill:#689e2f}.st70,.st71,.st72,.st73,.st74{clip-path:url(#SVGID_2_)}.st71{fill:#699f2e}.st72{fill:#6aa02e}.st73{fill:#6ca12e}.st74{fill:#6da22e}.st75{fill:#6fa32d}.st75,.st76,.st77,.st78,.st79{clip-path:url(#SVGID_2_)}.st76{fill:#70a42d}.st77{fill:#71a52d}.st78{fill:#73a62c}.st79{fill:#74a72c}.st80{fill:#75a82c}.st80,.st81,.st82,.st83,.st84{clip-path:url(#SVGID_2_)}.st81{fill:#77a92b}.st82{fill:#78aa2b}.st83{fill:#79ab2a}.st84{fill:#7bac2a}.st85{fill:#7cad2a}.st85,.st86,.st87,.st88,.st89{clip-path:url(#SVGID_2_)}.st86{fill:#7daf29}.st87{fill:#7fb029}.st88{fill:#80b128}.st89{fill:#82b228}.st90{fill:#83b327}.st90,.st91,.st92,.st93,.st94{clip-path:url(#SVGID_2_)}.st91{fill:#85b427}.st92{fill:#86b526}.st93{fill:#87b626}.st94{fill:#89b725}.st95{fill:#8ab824}.st95,.st96,.st97,.st98,.st99{clip-path:url(#SVGID_2_)}.st96{fill:#8bba24}.st97{fill:#8dbb23}.st98{fill:#8ebc22}.st99{fill:#90bd22}.st100{fill:#91be21}.st100,.st101,.st102,.st103{clip-path:url(#SVGID_2_)}.st101{fill:#92bf20}.st102{fill:#94c020}.st103{fill:#95c11f}.st104{clip-path:url(#SVGID_4_);fill:#063}.st105{fill:#016733}.st105,.st106,.st107,.st108{clip-path:url(#SVGID_4_)}.st106{fill:#046833}.st107{fill:#076833}.st108{fill:#0a6933}.st109{fill:#0d6a33}.st109,.st110,.st111,.st112{clip-path:url(#SVGID_4_)}.st110{fill:#106b33}.st111{fill:#126b33}.st112{fill:#146c33}.st113{fill:#166d33}.st113,.st114,.st115,.st116{clip-path:url(#SVGID_4_)}.st114{fill:#186e33}.st115{fill:#1a6e34}.st116{fill:#1c6f34}.st117{fill:#1e7034}.st117,.st118,.st119,.st120{clip-path:url(#SVGID_4_)}.st118{fill:#207134}.st119{fill:#217134}.st120{fill:#237234}.st121{fill:#247334}.st121,.st122,.st123,.st124{clip-path:url(#SVGID_4_)}.st122{fill:#267434}.st123{fill:#277434}.st124{fill:#297534}.st125{fill:#2a7634}.st125,.st126,.st127,.st128{clip-path:url(#SVGID_4_)}.st126{fill:#2c7734}.st127{fill:#2d7834}.st128{fill:#2f7834}.st129{fill:#307934}.st129,.st130,.st131,.st132{clip-path:url(#SVGID_4_)}.st130{fill:#327a34}.st131{fill:#337b34}.st132{fill:#347c34}.st133{fill:#367d34}.st133,.st134,.st135,.st136{clip-path:url(#SVGID_4_)}.st134{fill:#377d34}.st135{fill:#387e34}.st136{fill:#3a7f34}.st137{fill:#3b8034}.st137,.st138,.st139,.st140{clip-path:url(#SVGID_4_)}.st138{fill:#3c8134}.st139{fill:#3e8233}.st140{fill:#3f8233}.st141{fill:#408333}.st141,.st142,.st143,.st144{clip-path:url(#SVGID_4_)}.st142{fill:#428433}.st143{fill:#438533}.st144{fill:#448633}.st145{fill:#468733}.st145,.st146,.st147,.st148{clip-path:url(#SVGID_4_)}.st146{fill:#478833}.st147{fill:#488833}.st148{fill:#498933}.st149{fill:#4b8a33}.st149,.st150,.st151,.st152{clip-path:url(#SVGID_4_)}.st150{fill:#4c8b33}.st151{fill:#4d8c32}.st152{fill:#4e8d32}.st153{fill:#508e32}.st153,.st154,.st155,.st156{clip-path:url(#SVGID_4_)}.st154{fill:#518e32}.st155{fill:#528f32}.st156{fill:#549032}.st157{fill:#559132}.st157,.st158,.st159,.st160{clip-path:url(#SVGID_4_)}.st158{fill:#569231}.st159{fill:#589331}.st160{fill:#599431}.st161{fill:#5a9531}.st161,.st162,.st163,.st164{clip-path:url(#SVGID_4_)}.st162{fill:#5c9631}.st163{fill:#5d9730}.st164{fill:#5e9830}.st165{fill:#609830}.st165,.st166,.st167,.st168{clip-path:url(#SVGID_4_)}.st166{fill:#619930}.st167{fill:#629a30}.st168{fill:#649b2f}.st169{fill:#659c2f}.st169,.st170,.st171,.st172{clip-path:url(#SVGID_4_)}.st170{fill:#669d2f}.st171{fill:#689e2f}.st172{fill:#699f2e}.st173{fill:#6aa02e}.st173,.st174,.st175,.st176{clip-path:url(#SVGID_4_)}.st174{fill:#6ca12e}.st175{fill:#6da22e}.st176{fill:#6fa32d}.st177{fill:#70a42d}.st177,.st178,.st179,.st180{clip-path:url(#SVGID_4_)}.st178{fill:#71a52d}.st179{fill:#73a62c}.st180{fill:#74a72c}.st181{fill:#75a82c}.st181,.st182,.st183,.st184{clip-path:url(#SVGID_4_)}.st182{fill:#77a92b}.st183{fill:#78aa2b}.st184{fill:#79ab2a}.st185{fill:#7bac2a}.st185,.st186,.st187,.st188{clip-path:url(#SVGID_4_)}.st186{fill:#7cad2a}.st187{fill:#7daf29}.st188{fill:#7fb029}.st189{fill:#80b128}.st189,.st190,.st191,.st192{clip-path:url(#SVGID_4_)}.st190{fill:#82b228}.st191{fill:#83b327}.st192{fill:#85b427}.st193{fill:#86b526}.st193,.st194,.st195,.st196{clip-path:url(#SVGID_4_)}.st194{fill:#87b626}.st195{fill:#89b725}.st196{fill:#8ab824}.st197{fill:#8bba24}.st197,.st198,.st199,.st200{clip-path:url(#SVGID_4_)}.st198{fill:#8dbb23}.st199{fill:#8ebc22}.st200{fill:#90bd22}.st201{fill:#91be21}.st201,.st202,.st203,.st204{clip-path:url(#SVGID_4_)}.st202{fill:#92bf20}.st203{fill:#94c020}.st204{fill:#95c11f}.st205{fill:#dadada}.st206{fill:#402213}.st206,.st207,.st208,.st209{clip-path:url(#SVGID_6_)}.st207{fill:#412214}.st208{fill:#412314}.st209{fill:#422315}.st210{fill:#422415}.st210,.st211,.st212,.st213{clip-path:url(#SVGID_6_)}.st211{fill:#432415}.st212{fill:#432416}.st213{fill:#442516}.st214{fill:#452517}.st214,.st215,.st216,.st217{clip-path:url(#SVGID_6_)}.st215{fill:#452617}.st216{fill:#462617}.st217{fill:#462718}.st218{fill:#472718}.st218,.st219,.st220,.st221{clip-path:url(#SVGID_6_)}.st219{fill:#472819}.st220{fill:#482819}.st221{fill:#49291a}.st222{fill:#4a2a1b}.st222,.st223,.st224,.st225{clip-path:url(#SVGID_6_)}.st223{fill:#4b2b1c}.st224{fill:#4c2c1c}.st225{fill:#4d2c1d}.st226{fill:#4d2d1d}.st226,.st227,.st228,.st229{clip-path:url(#SVGID_6_)}.st227{fill:#4e2d1e}.st228{fill:#4e2e1e}.st229{fill:#4f2e1f}.st230{fill:#4f2f1f}.st230,.st231,.st232,.st233{clip-path:url(#SVGID_6_)}.st231{fill:#503020}.st232{fill:#513121}.st233{fill:#523121}.st234{fill:#523222}.st234,.st235,.st236,.st237{clip-path:url(#SVGID_6_)}.st235{fill:#533222}.st236{fill:#533323}.st237{fill:#543323}.st238{fill:#553424}.st238,.st239,.st240,.st241{clip-path:url(#SVGID_6_)}.st239{fill:#553524}.st240{fill:#563525}.st241{fill:#563625}.st242{fill:#573626}.st242,.st243,.st244,.st245{clip-path:url(#SVGID_6_)}.st243{fill:#583726}.st244{fill:#583827}.st245{fill:#593828}.st246{fill:#5a3928}.st246,.st247,.st248,.st249{clip-path:url(#SVGID_6_)}.st247{fill:#5a3929}.st248{fill:#5b3a29}.st249{fill:#5b3b2a}.st250{fill:#5c3b2a}.st250,.st251,.st252,.st253{clip-path:url(#SVGID_6_)}.st251{fill:#5d3c2b}.st252{fill:#5d3c2c}.st253{fill:#5e3d2c}.st254{fill:#5f3e2d}.st254,.st255,.st256,.st257{clip-path:url(#SVGID_6_)}.st255{fill:#603f2e}.st256{fill:#61402f}.st257{fill:#624130}.st258{fill:#624131}.st258,.st259,.st260,.st261{clip-path:url(#SVGID_6_)}.st259{fill:#634231}.st260{fill:#644332}.st261{fill:#644333}.st262{fill:#654433}.st262,.st263,.st264,.st265{clip-path:url(#SVGID_6_)}.st263{fill:#664534}.st264{fill:#664535}.st265{fill:#674635}.st266{fill:#674736}.st266,.st267,.st268,.st269{clip-path:url(#SVGID_6_)}.st267{fill:#684737}.st268{fill:#694837}.st269{fill:#694938}.st270{fill:#6a4a39}.st270,.st271,.st272,.st273{clip-path:url(#SVGID_6_)}.st271{fill:#6b4a39}.st272{fill:#6b4b3a}.st273{fill:#6c4c3b}.st274{fill:#6d4c3b}.st274,.st275,.st276,.st277{clip-path:url(#SVGID_6_)}.st275{fill:#6d4d3c}.st276{fill:#6e4e3d}.st277{fill:#6f4f3e}.st278{fill:#70503f}.st278,.st279,.st280,.st281{clip-path:url(#SVGID_6_)}.st279{fill:#705140}.st280{fill:#715140}.st281{fill:#725241}.st282{fill:#725342}.st282,.st283,.st284,.st285{clip-path:url(#SVGID_6_)}.st283{fill:#735442}.st284{fill:#745443}.st285{fill:#745544}.st286{fill:#755645}.st286,.st287,.st288,.st289{clip-path:url(#SVGID_6_)}.st287{fill:#765645}.st288{fill:#765746}.st289{fill:#775847}.st290{fill:#775948}.st290,.st291,.st292,.st293{clip-path:url(#SVGID_6_)}.st291{fill:#785948}.st292{fill:#795a49}.st293{fill:#795b4a}.st294{fill:#7a5c4b}.st294,.st295,.st296,.st297{clip-path:url(#SVGID_6_)}.st295{fill:#7b5c4c}.st296{fill:#7b5d4c}.st297{fill:#7c5e4d}.st298{fill:#7d5f4e}.st298,.st299,.st300,.st301{clip-path:url(#SVGID_6_)}.st299{fill:#7e604f}.st300{fill:#7e6050}.st301{fill:#7f6150}.st302{fill:#806251}.st302,.st303,.st304,.st305{clip-path:url(#SVGID_6_)}.st303{fill:#806352}.st304{fill:#816453}.st305{fill:#826554}.st306{fill:#826555}.st306,.st307,.st308,.st309{clip-path:url(#SVGID_6_)}.st307{fill:#836656}.st308{fill:#846756}.st309{fill:#846857}.st310{fill:#856958}.st310,.st311,.st312,.st313{clip-path:url(#SVGID_6_)}.st311{fill:#866959}.st312{fill:#876a5a}.st313{fill:#876b5b}.st314{fill:#886c5c}.st314,.st315,.st316,.st317{clip-path:url(#SVGID_6_)}.st315{fill:#896d5d}.st316{fill:#8a6e5e}.st317{fill:#8a6f5f}.st318{fill:#8b6f5f}.st318,.st319,.st320,.st321{clip-path:url(#SVGID_6_)}.st319{fill:#8c7060}.st320{fill:#8d7161}.st321{fill:#8d7262}.st322{fill:#8e7363}.st322,.st323,.st324,.st325{clip-path:url(#SVGID_6_)}.st323{fill:#8f7464}.st324{fill:#907565}.st325{fill:#907666}.st326{clip-path:url(#SVGID_8_);fill:#063}.st327{fill:#016733}.st327,.st328,.st329,.st330{clip-path:url(#SVGID_8_)}.st328{fill:#046833}.st329{fill:#076833}.st330{fill:#0a6933}.st331{fill:#0d6a33}.st331,.st332,.st333,.st334{clip-path:url(#SVGID_8_)}.st332{fill:#106b33}.st333{fill:#126b33}.st334{fill:#146c33}.st335{fill:#166d33}.st335,.st336,.st337,.st338{clip-path:url(#SVGID_8_)}.st336{fill:#186e33}.st337{fill:#1a6e34}.st338{fill:#1c6f34}.st339{fill:#1e7034}.st339,.st340,.st341,.st342{clip-path:url(#SVGID_8_)}.st340{fill:#207134}.st341{fill:#217134}.st342{fill:#237234}.st343{fill:#247334}.st343,.st344,.st345,.st346{clip-path:url(#SVGID_8_)}.st344{fill:#267434}.st345{fill:#277434}.st346{fill:#297534}.st347{fill:#2a7634}.st347,.st348,.st349,.st350{clip-path:url(#SVGID_8_)}.st348{fill:#2c7734}.st349{fill:#2d7834}.st350{fill:#2f7834}.st351{fill:#307934}.st351,.st352,.st353,.st354{clip-path:url(#SVGID_8_)}.st352{fill:#327a34}.st353{fill:#337b34}.st354{fill:#347c34}.st355{fill:#367d34}.st355,.st356,.st357,.st358{clip-path:url(#SVGID_8_)}.st356{fill:#377d34}.st357{fill:#387e34}.st358{fill:#3a7f34}.st359{fill:#3b8034}.st359,.st360,.st361,.st362{clip-path:url(#SVGID_8_)}.st360{fill:#3c8134}.st361{fill:#3e8233}.st362{fill:#3f8233}.st363{fill:#408333}.st363,.st364,.st365,.st366{clip-path:url(#SVGID_8_)}.st364{fill:#428433}.st365{fill:#438533}.st366{fill:#448633}.st367{fill:#468733}.st367,.st368,.st369,.st370{clip-path:url(#SVGID_8_)}.st368{fill:#478833}.st369{fill:#488833}.st370{fill:#498933}.st371{fill:#4b8a33}.st371,.st372,.st373,.st374{clip-path:url(#SVGID_8_)}.st372{fill:#4c8b33}.st373{fill:#4d8c32}.st374{fill:#4e8d32}.st375{fill:#508e32}.st375,.st376,.st377,.st378{clip-path:url(#SVGID_8_)}.st376{fill:#518e32}.st377{fill:#528f32}.st378{fill:#549032}.st379{fill:#559132}.st379,.st380,.st381,.st382{clip-path:url(#SVGID_8_)}.st380{fill:#569231}.st381{fill:#589331}.st382{fill:#599431}.st383{fill:#5a9531}.st383,.st384,.st385,.st386{clip-path:url(#SVGID_8_)}.st384{fill:#5c9631}.st385{fill:#5d9730}.st386{fill:#5e9830}.st387{fill:#609830}.st387,.st388,.st389,.st390{clip-path:url(#SVGID_8_)}.st388{fill:#619930}.st389{fill:#629a30}.st390{fill:#649b2f}.st391{fill:#659c2f}.st391,.st392,.st393,.st394{clip-path:url(#SVGID_8_)}.st392{fill:#669d2f}.st393{fill:#689e2f}.st394{fill:#699f2e}.st395{fill:#6aa02e}.st395,.st396,.st397,.st398{clip-path:url(#SVGID_8_)}.st396{fill:#6ca12e}.st397{fill:#6da22e}.st398{fill:#6fa32d}.st399{fill:#70a42d}.st399,.st400,.st401,.st402{clip-path:url(#SVGID_8_)}.st400{fill:#71a52d}.st401{fill:#73a62c}.st402{fill:#74a72c}.st403{fill:#75a82c}.st403,.st404,.st405,.st406{clip-path:url(#SVGID_8_)}.st404{fill:#77a92b}.st405{fill:#78aa2b}.st406{fill:#79ab2a}.st407{fill:#7bac2a}.st407,.st408,.st409,.st410{clip-path:url(#SVGID_8_)}.st408{fill:#7cad2a}.st409{fill:#7daf29}.st410{fill:#7fb029}.st411{fill:#80b128}.st411,.st412,.st413,.st414{clip-path:url(#SVGID_8_)}.st412{fill:#82b228}.st413{fill:#83b327}.st414{fill:#85b427}.st415{fill:#86b526}.st415,.st416,.st417,.st418{clip-path:url(#SVGID_8_)}.st416{fill:#87b626}.st417{fill:#89b725}.st418{fill:#8ab824}.st419{fill:#8bba24}.st419,.st420,.st421,.st422{clip-path:url(#SVGID_8_)}.st420{fill:#8dbb23}.st421{fill:#8ebc22}.st422{fill:#90bd22}.st423{fill:#91be21}.st423,.st424,.st425,.st426{clip-path:url(#SVGID_8_)}.st424{fill:#92bf20}.st425{fill:#94c020}.st426{fill:#95c11f}.st427{fill:#ca9e67}.st428{fill:#36a9e1}.st429{fill:#f9b233}</style><g><g><path d="M116,152.5c0,0,56.2-0.7,87.9,26.8c0,0-12.3,25.1-87.8,22.9l10-5.4l-12.8-3.9l15.8-4.3l-13.3-5.5l11.1-3.5 l-8.9-4.9l11.5-5.4l-10-7.4l8.8-2.5L116,152.5z" class="st0"/><path d="M122.2,173.5c0,0,66.4,3.4,69.1,5.9c0,0,3.6,2.2-0.9,2.3c0,0-22.6-4.1-68.4-5.7l-1.1,0.4l-2.3-1.2l1.6-0.9L122.2,173.5z"/></g><g><g><g><path d="M98.9,81.7l-6.8,2.8l0.7,0.4l0.5,0.3l0,0l3.7,2.2l-6,3l6.5,3.3l-7.5,3.6l7.1,4.3c-1.9,0.9-4.8,1.8-7.9,2.6 c-1.1,0.3-2.2,0.5-3.3,0.8c-2.1,0.5-4.1,0.9-5.9,1.2c-0.1,0-0.1,0-0.2,0c-3.5,0.7-6,1.1-6,1.1l0.9-16.9l0-0.3l0-0.1l0.1-1.9 l0.8-15.1c0,0,0,0,0,0c0,0,0.1,0,0.4,0c0.5,0,1.3-0.1,2.4-0.1c2.4-0.1,6.2-0.2,10,0c0.2,0,0.3,0,0.5,0c3.8,0.2,7.6,0.8,10.2,1.9 l-5.9,4L98.9,81.7z" class="st1"/><path d="M72.6,108.5l1.8-35.4l0-0.9l1.4-0.1c0.5,0,1.3-0.1,2.5-0.1c2.4-0.1,6.2-0.2,10.1,0l0.5,0 c4.6,0.3,8.2,0.9,10.6,2l1.7,0.7l-6,4l6.3,3.1l-7,2.9l4.7,2.8l-5.9,3l6.6,3.3L92,97.4l7,4.3l-1.6,0.8c-1.7,0.9-4.5,1.8-8.1,2.7 c-1.1,0.3-2.2,0.5-3.3,0.8c-1.8,0.4-3.7,0.8-6,1.2c-0.1,0-0.2,0-0.3,0c-3.4,0.6-5.9,1.1-6,1.1L72.6,108.5z M76.4,74l-1.6,32.1 c1.1-0.2,2.8-0.5,4.7-0.9l0.2,0c2.2-0.4,4.2-0.8,5.9-1.2c1.1-0.2,2.2-0.5,3.3-0.8c2.5-0.6,4.5-1.2,6-1.8l-7-4.2l7.3-3.5 l-6.5-3.2l6.1-3.1l-5-2.9l6.6-2.7l-5.4-2.7l5.7-3.8c-2.1-0.6-4.8-1-8.1-1.2l-0.5,0c-3.8-0.2-7.4-0.1-9.8,0 C77.5,73.9,76.8,74,76.4,74z" class="st2"/></g><g><path d="M74.4,88.1c0,0,13.9-1.2,18.4-3.3l3.4,2.4l-21.9,3.2L74.4,88.1z" class="st2"/></g></g><g><g><g><g><defs><path id="SVGID_1_" d="M77.6,131.1c-0.1-1.2-0.9-2.2-2-2.6c-0.3-0.1-0.6-0.4-0.6-0.8l-0.4-4.8l0.1,0l-0.1-0.7l-0.1,0l0-0.2 c0-0.2-0.2-0.4-0.5-0.4l-1.5,0.1c-0.3,0-0.4,0.2-0.4,0.5l0,0.2l-0.1,0l0.1,0.7l0.1,0l0.4,4.8c0,0.3-0.2,0.7-0.5,0.9 c-1,0.6-1.7,1.7-1.6,2.9l1.4,16.6c0,0.4,0.4,0.7,0.8,0.7l5.5-0.5c0.4,0,0.7-0.4,0.7-0.8C79,147.7,77.6,131.2,77.6,131.1z"/></defs><clipPath id="SVGID_2_"><use overflow="visible" xlink:href="#SVGID_1_"/></clipPath><rect width="8.5" height="27.4" x="70.5" y="121.6" class="st3"/><ellipse cx="72.2" cy="130.9" class="st3" rx="5.1" ry="5.1" transform="matrix(0.9966 -8.210197e-02 8.210197e-02 0.9966 -10.5067 6.3677)"/><ellipse cx="72.2" cy="130.9" class="st3" rx="5.1" ry="5.1" transform="matrix(0.9966 -8.210197e-02 8.210197e-02 0.9966 -10.5067 6.3677)"/><ellipse cx="72.2" cy="130.9" class="st4" rx="5" ry="5" transform="matrix(0.9966 -8.210197e-02 8.210197e-02 0.9966 -10.5067 6.3677)"/><ellipse cx="72.2" cy="130.9" class="st5" rx="5" ry="5" transform="matrix(0.9966 -8.210197e-02 8.210197e-02 0.9966 -10.5067 6.3677)"/><ellipse cx="72.2" cy="130.9" class="st6" rx="4.9" ry="4.9" transform="matrix(0.9966 -8.210197e-02 8.210197e-02 0.9966 -10.5067 6.3677)"/><ellipse cx="72.2" cy="130.9" class="st7" rx="4.9" ry="4.9" transform="matrix(0.9966 -8.210197e-02 8.210197e-02 0.9966 -10.5067 6.3677)"/><ellipse cx="72.2" cy="130.9" class="st8" rx="4.8" ry="4.8" transform="matrix(0.9966 -8.210197e-02 8.210197e-02 0.9966 -10.5067 6.3677)"/><ellipse cx="72.2" cy="130.9" class="st9" rx="4.8" ry="4.8" transform="matrix(0.9966 -8.210197e-02 8.210197e-02 0.9966 -10.5067 6.3677)"/><ellipse cx="72.2" cy="130.9" class="st10" rx="4.7" ry="4.7" transform="matrix(0.9966 -8.210197e-02 8.210197e-02 0.9966 -10.5067 6.3677)"/><ellipse cx="72.2" cy="130.9" class="st11" rx="4.7" ry="4.7" transform="matrix(0.9966 -8.210197e-02 8.210197e-02 0.9966 -10.5067 6.3677)"/><ellipse cx="72.2" cy="130.9" class="st12" rx="4.6" ry="4.6" transform="matrix(0.9966 -8.210197e-02 8.210197e-02 0.9966 -10.5067 6.3677)"/><ellipse cx="72.2" cy="130.9" class="st13" rx="4.6" ry="4.6" transform="matrix(0.9966 -8.210197e-02 8.210197e-02 0.9966 -10.5067 6.3677)"/><ellipse cx="72.2" cy="130.9" class="st14" rx="4.5" ry="4.5" transform="matrix(0.9966 -8.210197e-02 8.210197e-02 0.9966 -10.5067 6.3677)"/><ellipse cx="72.2" cy="130.9" class="st15" rx="4.5" ry="4.5" transform="matrix(0.9966 -8.210197e-02 8.210197e-02 0.9966 -10.5067 6.3677)"/><ellipse cx="72.2" cy="130.9" class="st16" rx="4.4" ry="4.4" transform="matrix(0.9966 -8.210197e-02 8.210197e-02 0.9966 -10.5067 6.3677)"/><ellipse cx="72.2" cy="130.9" class="st17" rx="4.4" ry="4.4" transform="matrix(0.9966 -8.210197e-02 8.210197e-02 0.9966 -10.5067 6.3677)"/><ellipse cx="72.2" cy="130.9" class="st18" rx="4.3" ry="4.3" transform="matrix(0.9966 -8.210197e-02 8.210197e-02 0.9966 -10.5067 6.3677)"/><ellipse cx="72.2" cy="130.9" class="st19" rx="4.3" ry="4.3" transform="matrix(0.9966 -8.210197e-02 8.210197e-02 0.9966 -10.5067 6.3677)"/><ellipse cx="72.2" cy="130.9" class="st20" rx="4.2" ry="4.2" transform="matrix(0.9966 -8.210197e-02 8.210197e-02 0.9966 -10.5067 6.3677)"/><ellipse cx="72.2" cy="130.9" class="st21" rx="4.2" ry="4.2" transform="matrix(0.9966 -8.210197e-02 8.210197e-02 0.9966 -10.5067 6.3677)"/><ellipse cx="72.2" cy="130.9" class="st22" rx="4.1" ry="4.1" transform="matrix(0.9966 -8.210197e-02 8.210197e-02 0.9966 -10.5067 6.3677)"/><ellipse cx="72.2" cy="130.9" class="st23" rx="4.1" ry="4.1" transform="matrix(0.9966 -8.210197e-02 8.210197e-02 0.9966 -10.5067 6.3677)"/><ellipse cx="72.2" cy="130.9" class="st24" rx="4" ry="4" transform="matrix(0.9966 -8.210197e-02 8.210197e-02 0.9966 -10.5067 6.3677)"/><ellipse cx="72.2" cy="130.9" class="st25" rx="4" ry="4" transform="matrix(0.9966 -8.210197e-02 8.210197e-02 0.9966 -10.5067 6.3677)"/><ellipse cx="72.2" cy="130.9" class="st26" rx="3.9" ry="3.9" transform="matrix(0.9966 -8.210197e-02 8.210197e-02 0.9966 -10.5067 6.3677)"/><ellipse cx="72.2" cy="130.9" class="st27" rx="3.9" ry="3.9" transform="matrix(0.9966 -8.210197e-02 8.210197e-02 0.9966 -10.5067 6.3677)"/><ellipse cx="72.2" cy="130.9" class="st28" rx="3.8" ry="3.8" transform="matrix(0.9966 -8.210197e-02 8.210197e-02 0.9966 -10.5067 6.3677)"/><ellipse cx="72.2" cy="130.9" class="st29" rx="3.8" ry="3.8" transform="matrix(0.9966 -8.210197e-02 8.210197e-02 0.9966 -10.5067 6.3677)"/><ellipse cx="72.2" cy="130.9" class="st30" rx="3.7" ry="3.7" transform="matrix(0.9966 -8.210197e-02 8.210197e-02 0.9966 -10.5067 6.3677)"/><ellipse cx="72.2" cy="130.9" class="st31" rx="3.7" ry="3.7" transform="matrix(0.9966 -8.210197e-02 8.210197e-02 0.9966 -10.5067 6.3677)"/><ellipse cx="72.2" cy="130.9" class="st32" rx="3.6" ry="3.6" transform="matrix(0.9966 -8.210197e-02 8.210197e-02 0.9966 -10.5067 6.3677)"/><ellipse cx="72.2" cy="130.9" class="st33" rx="3.6" ry="3.6" transform="matrix(0.9966 -8.210197e-02 8.210197e-02 0.9966 -10.5067 6.3677)"/><ellipse cx="72.2" cy="130.9" class="st34" rx="3.5" ry="3.5" transform="matrix(0.9966 -8.210197e-02 8.210197e-02 0.9966 -10.5067 6.3677)"/><ellipse cx="72.2" cy="130.9" class="st35" rx="3.5" ry="3.5" transform="matrix(0.9966 -8.210197e-02 8.210197e-02 0.9966 -10.5067 6.3677)"/><ellipse cx="72.2" cy="130.9" class="st36" rx="3.4" ry="3.4" transform="matrix(0.9966 -8.210197e-02 8.210197e-02 0.9966 -10.5067 6.3677)"/><ellipse cx="72.2" cy="130.9" class="st37" rx="3.4" ry="3.4" transform="matrix(0.9966 -8.210197e-02 8.210197e-02 0.9966 -10.5067 6.3677)"/><ellipse cx="72.2" cy="130.9" class="st38" rx="3.3" ry="3.3" transform="matrix(0.9966 -8.210197e-02 8.210197e-02 0.9966 -10.5067 6.3677)"/><ellipse cx="72.2" cy="130.9" class="st39" rx="3.3" ry="3.3" transform="matrix(0.9966 -8.210197e-02 8.210197e-02 0.9966 -10.5067 6.3677)"/><ellipse cx="72.2" cy="130.9" class="st40" rx="3.2" ry="3.2" transform="matrix(0.9966 -8.210197e-02 8.210197e-02 0.9966 -10.5067 6.3677)"/><ellipse cx="72.2" cy="130.9" class="st41" rx="3.2" ry="3.2" transform="matrix(0.9966 -8.210197e-02 8.210197e-02 0.9966 -10.5067 6.3677)"/><ellipse cx="72.2" cy="130.9" class="st42" rx="3.1" ry="3.1" transform="matrix(0.9966 -8.210197e-02 8.210197e-02 0.9966 -10.5067 6.3677)"/><ellipse cx="72.2" cy="130.9" class="st43" rx="3.1" ry="3.1" transform="matrix(0.9966 -8.210197e-02 8.210197e-02 0.9966 -10.5067 6.3677)"/><ellipse cx="72.2" cy="130.9" class="st44" rx="3" ry="3" transform="matrix(0.9966 -8.210197e-02 8.210197e-02 0.9966 -10.5067 6.3677)"/><ellipse cx="72.2" cy="130.9" class="st45" rx="3" ry="3" transform="matrix(0.9966 -8.210197e-02 8.210197e-02 0.9966 -10.5067 6.3677)"/><ellipse cx="72.2" cy="130.9" class="st46" rx="2.9" ry="2.9" transform="matrix(0.9966 -8.210197e-02 8.210197e-02 0.9966 -10.5067 6.3677)"/><ellipse cx="72.2" cy="130.9" class="st47" rx="2.9" ry="2.9" transform="matrix(0.9966 -8.210197e-02 8.210197e-02 0.9966 -10.5067 6.3677)"/><ellipse cx="72.2" cy="130.9" class="st48" rx="2.8" ry="2.8" transform="matrix(0.9966 -8.210197e-02 8.210197e-02 0.9966 -10.5067 6.3677)"/><ellipse cx="72.2" cy="130.9" class="st49" rx="2.8" ry="2.8" transform="matrix(0.9966 -8.210197e-02 8.210197e-02 0.9966 -10.5067 6.3677)"/><ellipse cx="72.2" cy="130.9" class="st50" rx="2.7" ry="2.7" transform="matrix(0.9966 -8.210197e-02 8.210197e-02 0.9966 -10.5067 6.3677)"/><ellipse cx="72.2" cy="130.9" class="st51" rx="2.7" ry="2.7" transform="matrix(0.9966 -8.210197e-02 8.210197e-02 0.9966 -10.5067 6.3677)"/><ellipse cx="72.2" cy="130.9" class="st52" rx="2.6" ry="2.6" transform="matrix(0.9966 -8.210197e-02 8.210197e-02 0.9966 -10.5067 6.3677)"/><ellipse cx="72.2" cy="130.9" class="st53" rx="2.6" ry="2.6" transform="matrix(0.9966 -8.210197e-02 8.210197e-02 0.9966 -10.5067 6.3677)"/><ellipse cx="72.2" cy="130.9" class="st54" rx="2.5" ry="2.5" transform="matrix(0.9966 -8.210197e-02 8.210197e-02 0.9966 -10.5067 6.3677)"/><ellipse cx="72.2" cy="130.9" class="st55" rx="2.5" ry="2.5" transform="matrix(0.9966 -8.210197e-02 8.210197e-02 0.9966 -10.5067 6.3677)"/><ellipse cx="72.2" cy="130.9" class="st56" rx="2.4" ry="2.4" transform="matrix(0.9966 -8.210197e-02 8.210197e-02 0.9966 -10.5067 6.3677)"/><ellipse cx="72.2" cy="130.9" class="st57" rx="2.4" ry="2.4" transform="matrix(0.9966 -8.210197e-02 8.210197e-02 0.9966 -10.5067 6.3677)"/><ellipse cx="72.2" cy="130.9" class="st58" rx="2.3" ry="2.3" transform="matrix(0.9966 -8.210197e-02 8.210197e-02 0.9966 -10.5067 6.3677)"/><ellipse cx="72.2" cy="130.9" class="st59" rx="2.3" ry="2.3" transform="matrix(0.9966 -8.210197e-02 8.210197e-02 0.9966 -10.5067 6.3677)"/><ellipse cx="72.2" cy="130.9" class="st60" rx="2.2" ry="2.2" transform="matrix(0.9966 -8.210197e-02 8.210197e-02 0.9966 -10.5067 6.3677)"/><ellipse cx="72.2" cy="130.9" class="st61" rx="2.2" ry="2.2" transform="matrix(0.9966 -8.210197e-02 8.210197e-02 0.9966 -10.5067 6.3677)"/><ellipse cx="72.2" cy="130.9" class="st62" rx="2.1" ry="2.1" transform="matrix(0.9966 -8.210197e-02 8.210197e-02 0.9966 -10.5067 6.3677)"/><ellipse cx="72.2" cy="130.9" class="st63" rx="2.1" ry="2.1" transform="matrix(0.9966 -8.210197e-02 8.210197e-02 0.9966 -10.5067 6.3677)"/><ellipse cx="72.2" cy="130.9" class="st64" rx="2" ry="2" transform="matrix(0.9966 -8.210197e-02 8.210197e-02 0.9966 -10.5067 6.3677)"/><ellipse cx="72.2" cy="130.9" class="st65" rx="2" ry="2" transform="matrix(0.9966 -8.210197e-02 8.210197e-02 0.9966 -10.5067 6.3677)"/><ellipse cx="72.2" cy="130.9" class="st66" rx="1.9" ry="1.9" transform="matrix(0.9966 -8.210197e-02 8.210197e-02 0.9966 -10.5067 6.3677)"/><ellipse cx="72.2" cy="130.9" class="st67" rx="1.9" ry="1.9" transform="matrix(0.9966 -8.210197e-02 8.210197e-02 0.9966 -10.5067 6.3677)"/><ellipse cx="72.2" cy="130.9" class="st68" rx="1.8" ry="1.8" transform="matrix(0.9966 -8.210197e-02 8.210197e-02 0.9966 -10.5067 6.3677)"/><ellipse cx="72.2" cy="130.9" class="st69" rx="1.8" ry="1.8" transform="matrix(0.9966 -8.210197e-02 8.210197e-02 0.9966 -10.5067 6.3677)"/><ellipse cx="72.2" cy="130.9" class="st70" rx="1.7" ry="1.7" transform="matrix(0.9966 -8.210197e-02 8.210197e-02 0.9966 -10.5067 6.3677)"/><ellipse cx="72.2" cy="130.9" class="st71" rx="1.7" ry="1.7" transform="matrix(0.9966 -8.210197e-02 8.210197e-02 0.9966 -10.5067 6.3677)"/><ellipse cx="72.2" cy="130.9" class="st72" rx="1.6" ry="1.6" transform="matrix(0.9966 -8.210197e-02 8.210197e-02 0.9966 -10.5067 6.3677)"/><ellipse cx="72.2" cy="130.9" class="st73" rx="1.6" ry="1.6" transform="matrix(0.9966 -8.210197e-02 8.210197e-02 0.9966 -10.5067 6.3677)"/><ellipse cx="72.2" cy="130.9" class="st74" rx="1.5" ry="1.5" transform="matrix(0.9966 -8.210197e-02 8.210197e-02 0.9966 -10.5067 6.3677)"/><ellipse cx="72.2" cy="130.9" class="st75" rx="1.5" ry="1.5" transform="matrix(0.9966 -8.210197e-02 8.210197e-02 0.9966 -10.5067 6.3677)"/><ellipse cx="72.2" cy="130.9" class="st76" rx="1.4" ry="1.4" transform="matrix(0.9966 -8.210197e-02 8.210197e-02 0.9966 -10.5067 6.3677)"/><ellipse cx="72.2" cy="130.9" class="st77" rx="1.4" ry="1.4" transform="matrix(0.9966 -8.210197e-02 8.210197e-02 0.9966 -10.5067 6.3677)"/><ellipse cx="72.2" cy="130.9" class="st78" rx="1.3" ry="1.3" transform="matrix(0.9966 -8.210197e-02 8.210197e-02 0.9966 -10.5067 6.3677)"/><ellipse cx="72.2" cy="130.9" class="st79" rx="1.3" ry="1.3" transform="matrix(0.9966 -8.210197e-02 8.210197e-02 0.9966 -10.5067 6.3677)"/><ellipse cx="72.2" cy="130.9" class="st80" rx="1.2" ry="1.2" transform="matrix(0.9966 -8.210197e-02 8.210197e-02 0.9966 -10.5067 6.3677)"/><ellipse cx="72.2" cy="130.9" class="st81" rx="1.2" ry="1.2" transform="matrix(0.9966 -8.210197e-02 8.210197e-02 0.9966 -10.5067 6.3677)"/><ellipse cx="72.2" cy="130.9" class="st82" rx="1.1" ry="1.1" transform="matrix(0.9966 -8.210197e-02 8.210197e-02 0.9966 -10.5067 6.3677)"/><ellipse cx="72.2" cy="130.9" class="st83" rx="1.1" ry="1.1" transform="matrix(0.9966 -8.210197e-02 8.210197e-02 0.9966 -10.5067 6.3677)"/><ellipse cx="72.2" cy="130.9" class="st84" rx="1" ry="1" transform="matrix(0.9966 -8.210197e-02 8.210197e-02 0.9966 -10.5067 6.3677)"/><ellipse cx="72.2" cy="130.9" class="st85" rx="1" ry="1" transform="matrix(0.9966 -8.210197e-02 8.210197e-02 0.9966 -10.5067 6.3677)"/><ellipse cx="72.2" cy="130.9" class="st86" rx=".9" ry=".9" transform="matrix(0.9966 -8.210197e-02 8.210197e-02 0.9966 -10.5067 6.3677)"/><ellipse cx="72.2" cy="130.9" class="st87" rx=".9" ry=".9" transform="matrix(0.9966 -8.210197e-02 8.210197e-02 0.9966 -10.5067 6.3677)"/><ellipse cx="72.2" cy="130.9" class="st88" rx=".8" ry=".8" transform="matrix(0.9966 -8.210197e-02 8.210197e-02 0.9966 -10.5067 6.3677)"/><ellipse cx="72.2" cy="130.9" class="st89" rx=".8" ry=".8" transform="matrix(0.9966 -8.210197e-02 8.210197e-02 0.9966 -10.5067 6.3677)"/><ellipse cx="72.2" cy="130.9" class="st90" rx=".7" ry=".7" transform="matrix(0.9966 -8.210197e-02 8.210197e-02 0.9966 -10.5067 6.3677)"/><ellipse cx="72.2" cy="130.9" class="st91" rx=".7" ry=".7" transform="matrix(0.9966 -8.210197e-02 8.210197e-02 0.9966 -10.5067 6.3677)"/><ellipse cx="72.2" cy="130.9" class="st92" rx=".6" ry=".6" transform="matrix(0.9966 -8.210197e-02 8.210197e-02 0.9966 -10.5067 6.3677)"/><ellipse cx="72.2" cy="130.9" class="st93" rx=".6" ry=".6" transform="matrix(0.9966 -8.210197e-02 8.210197e-02 0.9966 -10.5067 6.3677)"/><ellipse cx="72.2" cy="130.9" class="st94" rx=".5" ry=".5" transform="matrix(0.9966 -8.210197e-02 8.210197e-02 0.9966 -10.5067 6.3677)"/><ellipse cx="72.2" cy="130.9" class="st95" rx=".5" ry=".5" transform="matrix(0.9966 -8.210197e-02 8.210197e-02 0.9966 -10.5067 6.3677)"/><ellipse cx="72.2" cy="130.9" class="st96" rx=".4" ry=".4" transform="matrix(0.9966 -8.210197e-02 8.210197e-02 0.9966 -10.5067 6.3677)"/><ellipse cx="72.2" cy="130.9" class="st97" rx=".4" ry=".4" transform="matrix(0.9966 -8.210197e-02 8.210197e-02 0.9966 -10.5067 6.3677)"/><ellipse cx="72.2" cy="130.9" class="st98" rx=".3" ry=".3" transform="matrix(0.9966 -8.210197e-02 8.210197e-02 0.9966 -10.5067 6.3677)"/><ellipse cx="72.2" cy="130.9" class="st99" rx=".3" ry=".3" transform="matrix(0.9966 -8.210197e-02 8.210197e-02 0.9966 -10.5067 6.3677)"/><ellipse cx="72.2" cy="130.9" class="st100" rx=".2" ry=".2" transform="matrix(0.9966 -8.210197e-02 8.210197e-02 0.9966 -10.5067 6.3677)"/><ellipse cx="72.2" cy="130.9" class="st101" rx=".2" ry=".2" transform="matrix(0.9966 -8.210197e-02 8.210197e-02 0.9966 -10.5067 6.3677)"/><ellipse cx="72.2" cy="130.9" class="st102" rx=".1" ry=".1" transform="matrix(0.9966 -8.210197e-02 8.210197e-02 0.9966 -10.5067 6.3677)"/><ellipse cx="72.2" cy="130.9" class="st103" rx=".1" ry=".1" transform="matrix(0.9966 -8.210197e-02 8.210197e-02 0.9966 -10.5067 6.3677)"/></g></g><g><g><defs><path id="SVGID_3_" d="M78.1,148.5c-0.1,0-0.2-0.1-0.3-0.2c-0.5-1.1-1.5-1.8-2.4-1.7c-1,0.1-1.8,0.9-2.1,2.1 c0,0.1-0.1,0.2-0.3,0.3L78.1,148.5z"/></defs><clipPath id="SVGID_4_"><use overflow="visible" xlink:href="#SVGID_3_"/></clipPath><rect width="5.1" height="2.5" x="73" y="146.5" class="st104"/><ellipse cx="75.3" cy="148.4" class="st104" rx="2" ry="2" transform="matrix(0.8414 -0.5404 0.5404 0.8414 -68.2354 64.2054)"/><ellipse cx="75.3" cy="148.4" class="st104" rx="2" ry="2" transform="matrix(0.8414 -0.5404 0.5404 0.8414 -68.2354 64.2054)"/><ellipse cx="75.3" cy="148.4" class="st105" rx="2" ry="2" transform="matrix(0.8414 -0.5404 0.5404 0.8414 -68.2354 64.2054)"/><ellipse cx="75.3" cy="148.4" class="st106" rx="1.9" ry="1.9" transform="matrix(0.8414 -0.5404 0.5404 0.8414 -68.2354 64.2054)"/><ellipse cx="75.3" cy="148.4" class="st107" rx="1.9" ry="1.9" transform="matrix(0.8414 -0.5404 0.5404 0.8414 -68.2354 64.2054)"/><ellipse cx="75.3" cy="148.4" class="st108" rx="1.9" ry="1.9" transform="matrix(0.8414 -0.5404 0.5404 0.8414 -68.2354 64.2054)"/><ellipse cx="75.3" cy="148.4" class="st109" rx="1.9" ry="1.9" transform="matrix(0.8414 -0.5404 0.5404 0.8414 -68.2354 64.2054)"/><ellipse cx="75.3" cy="148.4" class="st110" rx="1.9" ry="1.9" transform="matrix(0.8414 -0.5404 0.5404 0.8414 -68.2354 64.2054)"/><ellipse cx="75.3" cy="148.4" class="st111" rx="1.8" ry="1.8" transform="matrix(0.8414 -0.5404 0.5404 0.8414 -68.2354 64.2054)"/><ellipse cx="75.3" cy="148.4" class="st112" rx="1.8" ry="1.8" transform="matrix(0.8414 -0.5404 0.5404 0.8414 -68.2354 64.2054)"/><ellipse cx="75.3" cy="148.4" class="st113" rx="1.8" ry="1.8" transform="matrix(0.8414 -0.5404 0.5404 0.8414 -68.2354 64.2054)"/><ellipse cx="75.3" cy="148.4" class="st114" rx="1.8" ry="1.8" transform="matrix(0.8414 -0.5404 0.5404 0.8414 -68.2354 64.2054)"/><ellipse cx="75.3" cy="148.4" class="st115" rx="1.8" ry="1.8" transform="matrix(0.8414 -0.5404 0.5404 0.8414 -68.2354 64.2054)"/><ellipse cx="75.3" cy="148.4" class="st116" rx="1.7" ry="1.7" transform="matrix(0.8414 -0.5404 0.5404 0.8414 -68.2354 64.2054)"/><ellipse cx="75.3" cy="148.4" class="st117" rx="1.7" ry="1.7" transform="matrix(0.8414 -0.5404 0.5404 0.8414 -68.2354 64.2054)"/><ellipse cx="75.3" cy="148.4" class="st118" rx="1.7" ry="1.7" transform="matrix(0.8414 -0.5404 0.5404 0.8414 -68.2354 64.2054)"/><ellipse cx="75.3" cy="148.4" class="st119" rx="1.7" ry="1.7" transform="matrix(0.8414 -0.5404 0.5404 0.8414 -68.2354 64.2054)"/><ellipse cx="75.3" cy="148.4" class="st120" rx="1.7" ry="1.7" transform="matrix(0.8414 -0.5404 0.5404 0.8414 -68.2354 64.2054)"/><ellipse cx="75.3" cy="148.4" class="st121" rx="1.6" ry="1.6" transform="matrix(0.8414 -0.5404 0.5404 0.8414 -68.2354 64.2054)"/><ellipse cx="75.3" cy="148.4" class="st122" rx="1.6" ry="1.6" transform="matrix(0.8414 -0.5404 0.5404 0.8414 -68.2354 64.2054)"/><ellipse cx="75.3" cy="148.4" class="st123" rx="1.6" ry="1.6" transform="matrix(0.8414 -0.5404 0.5404 0.8414 -68.2354 64.2054)"/><ellipse cx="75.3" cy="148.4" class="st124" rx="1.6" ry="1.6" transform="matrix(0.8414 -0.5404 0.5404 0.8414 -68.2354 64.2054)"/><ellipse cx="75.3" cy="148.4" class="st125" rx="1.6" ry="1.6" transform="matrix(0.8414 -0.5404 0.5404 0.8414 -68.2354 64.2054)"/><ellipse cx="75.3" cy="148.4" class="st126" rx="1.5" ry="1.5" transform="matrix(0.8414 -0.5404 0.5404 0.8414 -68.2354 64.2054)"/><ellipse cx="75.3" cy="148.4" class="st127" rx="1.5" ry="1.5" transform="matrix(0.8414 -0.5404 0.5404 0.8414 -68.2354 64.2054)"/><ellipse cx="75.3" cy="148.4" class="st128" rx="1.5" ry="1.5" transform="matrix(0.8414 -0.5404 0.5404 0.8414 -68.2354 64.2054)"/><ellipse cx="75.3" cy="148.4" class="st129" rx="1.5" ry="1.5" transform="matrix(0.8414 -0.5404 0.5404 0.8414 -68.2354 64.2054)"/><ellipse cx="75.3" cy="148.4" class="st130" rx="1.5" ry="1.5" transform="matrix(0.8414 -0.5404 0.5404 0.8414 -68.2354 64.2054)"/><ellipse cx="75.3" cy="148.4" class="st131" rx="1.4" ry="1.4" transform="matrix(0.8414 -0.5404 0.5404 0.8414 -68.2354 64.2054)"/><ellipse cx="75.3" cy="148.4" class="st132" rx="1.4" ry="1.4" transform="matrix(0.8414 -0.5404 0.5404 0.8414 -68.2354 64.2054)"/><ellipse cx="75.3" cy="148.4" class="st133" rx="1.4" ry="1.4" transform="matrix(0.8414 -0.5404 0.5404 0.8414 -68.2354 64.2054)"/><ellipse cx="75.3" cy="148.4" class="st134" rx="1.4" ry="1.4" transform="matrix(0.8414 -0.5404 0.5404 0.8414 -68.2354 64.2054)"/><ellipse cx="75.3" cy="148.4" class="st135" rx="1.4" ry="1.4" transform="matrix(0.8414 -0.5404 0.5404 0.8414 -68.2354 64.2054)"/><ellipse cx="75.3" cy="148.4" class="st136" rx="1.3" ry="1.3" transform="matrix(0.8414 -0.5404 0.5404 0.8414 -68.2354 64.2054)"/><ellipse cx="75.3" cy="148.4" class="st137" rx="1.3" ry="1.3" transform="matrix(0.8414 -0.5404 0.5404 0.8414 -68.2354 64.2054)"/><ellipse cx="75.3" cy="148.4" class="st138" rx="1.3" ry="1.3" transform="matrix(0.8414 -0.5404 0.5404 0.8414 -68.2354 64.2054)"/><ellipse cx="75.3" cy="148.4" class="st139" rx="1.3" ry="1.3" transform="matrix(0.8414 -0.5404 0.5404 0.8414 -68.2354 64.2054)"/><ellipse cx="75.3" cy="148.4" class="st140" rx="1.3" ry="1.3" transform="matrix(0.8414 -0.5404 0.5404 0.8414 -68.2354 64.2054)"/><ellipse cx="75.3" cy="148.4" class="st141" rx="1.2" ry="1.2" transform="matrix(0.8414 -0.5404 0.5404 0.8414 -68.2354 64.2054)"/><ellipse cx="75.3" cy="148.4" class="st142" rx="1.2" ry="1.2" transform="matrix(0.8414 -0.5404 0.5404 0.8414 -68.2354 64.2054)"/><ellipse cx="75.3" cy="148.4" class="st143" rx="1.2" ry="1.2" transform="matrix(0.8414 -0.5404 0.5404 0.8414 -68.2354 64.2054)"/><ellipse cx="75.3" cy="148.4" class="st144" rx="1.2" ry="1.2" transform="matrix(0.8414 -0.5404 0.5404 0.8414 -68.2354 64.2054)"/><ellipse cx="75.3" cy="148.4" class="st145" rx="1.2" ry="1.2" transform="matrix(0.8414 -0.5404 0.5404 0.8414 -68.2354 64.2054)"/><ellipse cx="75.3" cy="148.4" class="st146" rx="1.2" ry="1.2" transform="matrix(0.8414 -0.5404 0.5404 0.8414 -68.2354 64.2054)"/><ellipse cx="75.3" cy="148.4" class="st147" rx="1.1" ry="1.1" transform="matrix(0.8414 -0.5404 0.5404 0.8414 -68.2354 64.2054)"/><ellipse cx="75.3" cy="148.4" class="st148" rx="1.1" ry="1.1" transform="matrix(0.8414 -0.5404 0.5404 0.8414 -68.2354 64.2054)"/><ellipse cx="75.3" cy="148.4" class="st149" rx="1.1" ry="1.1" transform="matrix(0.8414 -0.5404 0.5404 0.8414 -68.2354 64.2054)"/><ellipse cx="75.3" cy="148.4" class="st150" rx="1.1" ry="1.1" transform="matrix(0.8414 -0.5404 0.5404 0.8414 -68.2354 64.2054)"/><ellipse cx="75.3" cy="148.4" class="st151" rx="1.1" ry="1.1" transform="matrix(0.8414 -0.5404 0.5404 0.8414 -68.2354 64.2054)"/><ellipse cx="75.3" cy="148.4" class="st152" rx="1" ry="1" transform="matrix(0.8414 -0.5404 0.5404 0.8414 -68.2354 64.2054)"/><ellipse cx="75.3" cy="148.4" class="st153" rx="1" ry="1" transform="matrix(0.8414 -0.5404 0.5404 0.8414 -68.2354 64.2054)"/><ellipse cx="75.3" cy="148.4" class="st154" rx="1" ry="1" transform="matrix(0.8414 -0.5404 0.5404 0.8414 -68.2354 64.2054)"/><ellipse cx="75.3" cy="148.4" class="st155" rx="1" ry="1" transform="matrix(0.8414 -0.5404 0.5404 0.8414 -68.2354 64.2054)"/><ellipse cx="75.3" cy="148.4" class="st156" rx="1" ry="1" transform="matrix(0.8414 -0.5404 0.5404 0.8414 -68.2354 64.2054)"/><ellipse cx="75.3" cy="148.4" class="st157" rx=".9" ry=".9" transform="matrix(0.8414 -0.5404 0.5404 0.8414 -68.2354 64.2054)"/><ellipse cx="75.3" cy="148.4" class="st158" rx=".9" ry=".9" transform="matrix(0.8414 -0.5404 0.5404 0.8414 -68.2354 64.2054)"/><ellipse cx="75.3" cy="148.4" class="st159" rx=".9" ry=".9" transform="matrix(0.8414 -0.5404 0.5404 0.8414 -68.2354 64.2054)"/><ellipse cx="75.3" cy="148.4" class="st160" rx=".9" ry=".9" transform="matrix(0.8414 -0.5404 0.5404 0.8414 -68.2354 64.2054)"/><ellipse cx="75.3" cy="148.4" class="st161" rx=".9" ry=".9" transform="matrix(0.8414 -0.5404 0.5404 0.8414 -68.2354 64.2054)"/><ellipse cx="75.3" cy="148.4" class="st162" rx=".8" ry=".8" transform="matrix(0.8414 -0.5404 0.5404 0.8414 -68.2354 64.2054)"/><ellipse cx="75.3" cy="148.4" class="st163" rx=".8" ry=".8" transform="matrix(0.8414 -0.5404 0.5404 0.8414 -68.2354 64.2054)"/><ellipse cx="75.3" cy="148.4" class="st164" rx=".8" ry=".8" transform="matrix(0.8414 -0.5404 0.5404 0.8414 -68.2354 64.2054)"/><ellipse cx="75.3" cy="148.4" class="st165" rx=".8" ry=".8" transform="matrix(0.8414 -0.5404 0.5404 0.8414 -68.2354 64.2054)"/><ellipse cx="75.3" cy="148.4" class="st166" rx=".8" ry=".8" transform="matrix(0.8414 -0.5404 0.5404 0.8414 -68.2354 64.2054)"/><ellipse cx="75.3" cy="148.4" class="st167" rx=".7" ry=".7" transform="matrix(0.8414 -0.5404 0.5404 0.8414 -68.2354 64.2054)"/><ellipse cx="75.3" cy="148.4" class="st168" rx=".7" ry=".7" transform="matrix(0.8414 -0.5404 0.5404 0.8414 -68.2354 64.2054)"/><ellipse cx="75.3" cy="148.4" class="st169" rx=".7" ry=".7" transform="matrix(0.8414 -0.5404 0.5404 0.8414 -68.2354 64.2054)"/><ellipse cx="75.3" cy="148.4" class="st170" rx=".7" ry=".7" transform="matrix(0.8414 -0.5404 0.5404 0.8414 -68.2354 64.2054)"/><ellipse cx="75.3" cy="148.4" class="st171" rx=".7" ry=".7" transform="matrix(0.8414 -0.5404 0.5404 0.8414 -68.2354 64.2054)"/><ellipse cx="75.3" cy="148.4" class="st172" rx=".6" ry=".6" transform="matrix(0.8414 -0.5404 0.5404 0.8414 -68.2354 64.2054)"/><ellipse cx="75.3" cy="148.4" class="st173" rx=".6" ry=".6" transform="matrix(0.8414 -0.5404 0.5404 0.8414 -68.2354 64.2054)"/><ellipse cx="75.3" cy="148.4" class="st174" rx=".6" ry=".6" transform="matrix(0.8414 -0.5404 0.5404 0.8414 -68.2354 64.2054)"/><ellipse cx="75.3" cy="148.4" class="st175" rx=".6" ry=".6" transform="matrix(0.8414 -0.5404 0.5404 0.8414 -68.2354 64.2054)"/><ellipse cx="75.3" cy="148.4" class="st176" rx=".6" ry=".6" transform="matrix(0.8414 -0.5404 0.5404 0.8414 -68.2354 64.2054)"/><ellipse cx="75.3" cy="148.4" class="st177" rx=".5" ry=".5" transform="matrix(0.8414 -0.5404 0.5404 0.8414 -68.2354 64.2054)"/><ellipse cx="75.3" cy="148.4" class="st178" rx=".5" ry=".5" transform="matrix(0.8414 -0.5404 0.5404 0.8414 -68.2354 64.2054)"/><ellipse cx="75.3" cy="148.4" class="st179" rx=".5" ry=".5" transform="matrix(0.8414 -0.5404 0.5404 0.8414 -68.2354 64.2054)"/><ellipse cx="75.3" cy="148.4" class="st180" rx=".5" ry=".5" transform="matrix(0.8414 -0.5404 0.5404 0.8414 -68.2354 64.2054)"/><ellipse cx="75.3" cy="148.4" class="st181" rx=".5" ry=".5" transform="matrix(0.8414 -0.5404 0.5404 0.8414 -68.2354 64.2054)"/><ellipse cx="75.3" cy="148.4" class="st182" rx=".4" ry=".4" transform="matrix(0.8414 -0.5404 0.5404 0.8414 -68.2354 64.2054)"/><ellipse cx="75.3" cy="148.4" class="st183" rx=".4" ry=".4" transform="matrix(0.8414 -0.5404 0.5404 0.8414 -68.2354 64.2054)"/><ellipse cx="75.3" cy="148.4" class="st184" rx=".4" ry=".4" transform="matrix(0.8414 -0.5404 0.5404 0.8414 -68.2354 64.2054)"/><ellipse cx="75.3" cy="148.4" class="st185" rx=".4" ry=".4" transform="matrix(0.8414 -0.5404 0.5404 0.8414 -68.2354 64.2054)"/><ellipse cx="75.3" cy="148.4" class="st186" rx=".4" ry=".4" transform="matrix(0.8414 -0.5404 0.5404 0.8414 -68.2354 64.2054)"/><ellipse cx="75.3" cy="148.4" class="st187" rx=".4" ry=".4" transform="matrix(0.8414 -0.5404 0.5404 0.8414 -68.2354 64.2054)"/><ellipse cx="75.3" cy="148.4" class="st188" rx=".3" ry=".3" transform="matrix(0.8414 -0.5404 0.5404 0.8414 -68.2354 64.2054)"/><ellipse cx="75.3" cy="148.4" class="st189" rx=".3" ry=".3" transform="matrix(0.8414 -0.5404 0.5404 0.8414 -68.2354 64.2054)"/><ellipse cx="75.3" cy="148.4" class="st190" rx=".3" ry=".3" transform="matrix(0.8414 -0.5404 0.5404 0.8414 -68.2354 64.2054)"/><ellipse cx="75.3" cy="148.4" class="st191" rx=".3" ry=".3" transform="matrix(0.8414 -0.5404 0.5404 0.8414 -68.2354 64.2054)"/><ellipse cx="75.3" cy="148.4" class="st192" rx=".3" ry=".3" transform="matrix(0.8414 -0.5404 0.5404 0.8414 -68.2354 64.2054)"/><ellipse cx="75.3" cy="148.4" class="st193" rx=".2" ry=".2" transform="matrix(0.8414 -0.5404 0.5404 0.8414 -68.2354 64.2054)"/><ellipse cx="75.3" cy="148.4" class="st194" rx=".2" ry=".2" transform="matrix(0.8414 -0.5404 0.5404 0.8414 -68.2354 64.2054)"/><ellipse cx="75.3" cy="148.4" class="st195" rx=".2" ry=".2" transform="matrix(0.8414 -0.5404 0.5404 0.8414 -68.2354 64.2054)"/><ellipse cx="75.3" cy="148.4" class="st196" rx=".2" ry=".2" transform="matrix(0.8414 -0.5404 0.5404 0.8414 -68.2354 64.2054)"/><ellipse cx="75.3" cy="148.4" class="st197" rx=".2" ry=".2" transform="matrix(0.8414 -0.5404 0.5404 0.8414 -68.2354 64.2054)"/><ellipse cx="75.3" cy="148.4" class="st198" rx=".1" ry=".1" transform="matrix(0.8414 -0.5404 0.5404 0.8414 -68.2354 64.2054)"/><ellipse cx="75.3" cy="148.4" class="st199" rx=".1" ry=".1" transform="matrix(0.8414 -0.5404 0.5404 0.8414 -68.2354 64.2054)"/><ellipse cx="75.3" cy="148.4" class="st200" rx=".1" ry=".1" transform="matrix(0.8414 -0.5404 0.5404 0.8414 -68.2354 64.2054)"/><ellipse cx="75.3" cy="148.4" class="st201" rx=".1" ry=".1" transform="matrix(0.8414 -0.5404 0.5404 0.8414 -68.2354 64.2054)"/><ellipse cx="75.3" cy="148.4" class="st202" rx=".1" ry=".1" transform="matrix(0.8414 -0.5404 0.5404 0.8414 -68.2354 64.2054)"/><ellipse cx="75.3" cy="148.4" class="st203" rx="0" ry="0" transform="matrix(0.8414 -0.5404 0.5404 0.8414 -68.2354 64.2054)"/><ellipse cx="75.3" cy="148.4" class="st204" rx="0" ry="0" transform="matrix(0.8414 -0.5404 0.5404 0.8414 -68.2354 64.2054)"/></g></g></g><g><path d="M66.9,167.8l0.4,0.7l4.3,1.2l6.6,0.8l5.8-0.7c0,0,3.6-1.3,5.4-3.8c1.8-2.5,1.7-3.8,1.7-3.8l0.5-3.4 l-0.2-2.7l-0.7-5.4l-1.4-5.3l-6.3-3.5l-4.5-1.9l-0.8-0.5l2.9-18.2l2.5-7.4l-2.2-0.6l-1.6,3.4l-1.7,7.2l-0.8,5l-0.4,4.2l-1,5.3 l-1.9-1.9l-1-0.9l-1.1,1.4l-0.1,4.2l-0.8,0.8l-2.8-0.3L66.9,167.8z" class="st205"/></g><g><path d="M75.2,144.2c0,0-0.1,0-0.1,0c-0.5-0.1-0.9-0.6-0.9-1.1c0.5-4.6,3.1-27.7,5.9-30.7c0.4-0.4,1-0.4,1.4-0.1 c0.4,0.4,0.4,1,0.1,1.4c-1.8,1.9-4.2,19.2-5.3,29.6C76.1,143.9,75.7,144.2,75.2,144.2z"/></g><g><path d="M87.1,117.7l0,3l0,3.3l-0.5,2.1l-0.2,0.7l-1.9,4l-0.1-0.2l-0.1-0.3l0.5-9.9l0.1-1.6l1.1-0.7c0,0,0,0,0,0 L87.1,117.7z" class="st205"/></g><g><path d="M77.8,142.2c0,0-0.1,0-0.1,0c-0.5-0.1-0.9-0.6-0.9-1.1c0.1-0.7,2.2-17.2,3.3-20.9c0.2-0.5,0.7-0.8,1.3-0.6 c0.5,0.2,0.8,0.7,0.6,1.3c-1.1,3.5-3.2,20.3-3.3,20.5C78.7,141.8,78.3,142.2,77.8,142.2z"/></g><g><path d="M84,131.9c0,0-0.1,0-0.1,0c-0.5-0.1-0.9-0.6-0.9-1.1c0-0.1,0.9-7.9,0.8-11.4c0-0.6,0.4-1,1-1c0.5,0,1,0.4,1,1 c0.1,3.6-0.8,11.3-0.9,11.6C85,131.5,84.5,131.9,84,131.9z"/></g><g><path d="M87,127.4c-0.1,0-0.1,0-0.2,0c-0.5-0.1-0.9-0.6-0.8-1.1c0.7-4.4,0.5-8.8,0.5-8.9c0-0.6,0.4-1,0.9-1.1 c0.6,0,1,0.4,1.1,0.9c0,0.2,0.3,4.7-0.5,9.3C87.9,127.1,87.5,127.4,87,127.4z"/></g><g><g><defs><path id="SVGID_5_" d="M92.9,118.8c0.1-0.3-0.1-0.6-0.4-0.8l-1.9-0.7c-0.3-0.1-0.7,0-0.8,0.3l-0.1,0.3l-0.1,0l-0.4,0.9l0.1,0 l-2.4,6.1c-0.2,0.4-0.6,0.7-1.1,0.8c-1.6,0.2-3.1,1.1-3.7,2.6l-3.3,8.3l-0.4,3c1.4,0.5,4.4,1.9,8.1,3.7 c2.2-5.6,4.5-11.5,4.5-11.5c0.6-1.5,0.2-3.2-0.9-4.4c-0.3-0.4-0.4-0.9-0.2-1.3l2.4-6.1l0.1,0.1l0.4-0.9l-0.1-0.1L92.9,118.8z"/></defs><clipPath id="SVGID_6_"><use overflow="visible" xlink:href="#SVGID_5_"/></clipPath><rect width="14.5" height="26.2" x="78.5" y="117.2" class="st206"/><ellipse cx="81.3" cy="126.5" class="st206" rx="5.7" ry="5.7" transform="matrix(0.9983 -5.770196e-02 5.770196e-02 0.9983 -7.166 4.9041)"/><ellipse cx="81.3" cy="126.5" class="st207" rx="5.7" ry="5.7" transform="matrix(0.9983 -5.770196e-02 5.770196e-02 0.9983 -7.166 4.9041)"/><ellipse cx="81.3" cy="126.5" class="st208" rx="5.6" ry="5.6" transform="matrix(0.9983 -5.770196e-02 5.770196e-02 0.9983 -7.166 4.9041)"/><ellipse cx="81.3" cy="126.5" class="st209" rx="5.6" ry="5.6" transform="matrix(0.9983 -5.770196e-02 5.770196e-02 0.9983 -7.166 4.9041)"/><ellipse cx="81.3" cy="126.5" class="st210" rx="5.6" ry="5.6" transform="matrix(0.9983 -5.770196e-02 5.770196e-02 0.9983 -7.166 4.9041)"/><ellipse cx="81.3" cy="126.5" class="st211" rx="5.5" ry="5.5" transform="matrix(0.9983 -5.770196e-02 5.770196e-02 0.9983 -7.166 4.9041)"/><ellipse cx="81.3" cy="126.5" class="st212" rx="5.5" ry="5.5" transform="matrix(0.9983 -5.770196e-02 5.770196e-02 0.9983 -7.166 4.9041)"/><ellipse cx="81.3" cy="126.5" class="st213" rx="5.4" ry="5.4" transform="matrix(0.9983 -5.770196e-02 5.770196e-02 0.9983 -7.166 4.9041)"/><ellipse cx="81.3" cy="126.5" class="st214" rx="5.4" ry="5.4" transform="matrix(0.9983 -5.770196e-02 5.770196e-02 0.9983 -7.166 4.9041)"/><ellipse cx="81.3" cy="126.5" class="st215" rx="5.3" ry="5.3" transform="matrix(0.9983 -5.770196e-02 5.770196e-02 0.9983 -7.166 4.9041)"/><ellipse cx="81.3" cy="126.5" class="st216" rx="5.3" ry="5.3" transform="matrix(0.9983 -5.770196e-02 5.770196e-02 0.9983 -7.166 4.9041)"/><ellipse cx="81.3" cy="126.5" class="st217" rx="5.2" ry="5.2" transform="matrix(0.9983 -5.770196e-02 5.770196e-02 0.9983 -7.166 4.9041)"/><ellipse cx="81.3" cy="126.5" class="st218" rx="5.2" ry="5.2" transform="matrix(0.9983 -5.770196e-02 5.770196e-02 0.9983 -7.166 4.9041)"/><ellipse cx="81.3" cy="126.5" class="st219" rx="5.1" ry="5.1" transform="matrix(0.9983 -5.770196e-02 5.770196e-02 0.9983 -7.166 4.9041)"/><ellipse cx="81.3" cy="126.5" class="st220" rx="5.1" ry="5.1" transform="matrix(0.9983 -5.770196e-02 5.770196e-02 0.9983 -7.166 4.9041)"/><ellipse cx="81.3" cy="126.5" class="st220" rx="5.1" ry="5.1" transform="matrix(0.9983 -5.770196e-02 5.770196e-02 0.9983 -7.166 4.9041)"/><ellipse cx="81.3" cy="126.5" class="st221" rx="5" ry="5" transform="matrix(0.9983 -5.770196e-02 5.770196e-02 0.9983 -7.166 4.9041)"/><ellipse cx="81.3" cy="126.5" class="st221" rx="5" ry="5" transform="matrix(0.9983 -5.770196e-02 5.770196e-02 0.9983 -7.166 4.9041)"/><ellipse cx="81.3" cy="126.5" class="st222" rx="4.9" ry="4.9" transform="matrix(0.9983 -5.770196e-02 5.770196e-02 0.9983 -7.166 4.9041)"/><ellipse cx="81.3" cy="126.5" class="st222" rx="4.9" ry="4.9" transform="matrix(0.9983 -5.770196e-02 5.770196e-02 0.9983 -7.166 4.9041)"/><ellipse cx="81.3" cy="126.5" class="st223" rx="4.8" ry="4.8" transform="matrix(0.9983 -5.770196e-02 5.770196e-02 0.9983 -7.166 4.9041)"/><ellipse cx="81.3" cy="126.5" class="st223" rx="4.8" ry="4.8" transform="matrix(0.9983 -5.770196e-02 5.770196e-02 0.9983 -7.166 4.9041)"/><ellipse cx="81.3" cy="126.5" class="st224" rx="4.7" ry="4.7" transform="matrix(0.9983 -5.770196e-02 5.770196e-02 0.9983 -7.166 4.9041)"/><ellipse cx="81.3" cy="126.5" class="st225" rx="4.7" ry="4.7" transform="matrix(0.9983 -5.770196e-02 5.770196e-02 0.9983 -7.166 4.9041)"/><ellipse cx="81.3" cy="126.5" class="st226" rx="4.7" ry="4.7" transform="matrix(0.9983 -5.770196e-02 5.770196e-02 0.9983 -7.166 4.9041)"/><ellipse cx="81.3" cy="126.5" class="st227" rx="4.6" ry="4.6" transform="matrix(0.9983 -5.770196e-02 5.770196e-02 0.9983 -7.166 4.9041)"/><ellipse cx="81.3" cy="126.5" class="st228" rx="4.6" ry="4.6" transform="matrix(0.9983 -5.770196e-02 5.770196e-02 0.9983 -7.166 4.9041)"/><ellipse cx="81.3" cy="126.5" class="st229" rx="4.5" ry="4.5" transform="matrix(0.9983 -5.770196e-02 5.770196e-02 0.9983 -7.166 4.9041)"/><ellipse cx="81.3" cy="126.5" class="st230" rx="4.5" ry="4.5" transform="matrix(0.9983 -5.770196e-02 5.770196e-02 0.9983 -7.166 4.9041)"/><ellipse cx="81.3" cy="126.5" class="st231" rx="4.4" ry="4.4" transform="matrix(0.9983 -5.770196e-02 5.770196e-02 0.9983 -7.166 4.9041)"/><ellipse cx="81.3" cy="126.5" class="st231" rx="4.4" ry="4.4" transform="matrix(0.9983 -5.770196e-02 5.770196e-02 0.9983 -7.166 4.9041)"/><ellipse cx="81.3" cy="126.5" class="st232" rx="4.3" ry="4.3" transform="matrix(0.9983 -5.770196e-02 5.770196e-02 0.9983 -7.166 4.9041)"/><ellipse cx="81.3" cy="126.5" class="st233" rx="4.3" ry="4.3" transform="matrix(0.9983 -5.770196e-02 5.770196e-02 0.9983 -7.166 4.9041)"/><ellipse cx="81.3" cy="126.5" class="st234" rx="4.3" ry="4.3" transform="matrix(0.9983 -5.770196e-02 5.770196e-02 0.9983 -7.166 4.9041)"/><ellipse cx="81.3" cy="126.5" class="st235" rx="4.2" ry="4.2" transform="matrix(0.9983 -5.770196e-02 5.770196e-02 0.9983 -7.166 4.9041)"/><ellipse cx="81.3" cy="126.5" class="st236" rx="4.2" ry="4.2" transform="matrix(0.9983 -5.770196e-02 5.770196e-02 0.9983 -7.166 4.9041)"/><ellipse cx="81.3" cy="126.5" class="st237" rx="4.1" ry="4.1" transform="matrix(0.9983 -5.770196e-02 5.770196e-02 0.9983 -7.166 4.9041)"/><ellipse cx="81.3" cy="126.5" class="st238" rx="4.1" ry="4.1" transform="matrix(0.9983 -5.770196e-02 5.770196e-02 0.9983 -7.166 4.9041)"/><ellipse cx="81.3" cy="126.5" class="st239" rx="4" ry="4" transform="matrix(0.9983 -5.770196e-02 5.770196e-02 0.9983 -7.166 4.9041)"/><ellipse cx="81.3" cy="126.5" class="st240" rx="4" ry="4" transform="matrix(0.9983 -5.770196e-02 5.770196e-02 0.9983 -7.166 4.9041)"/><ellipse cx="81.3" cy="126.5" class="st241" rx="3.9" ry="3.9" transform="matrix(0.9983 -5.770196e-02 5.770196e-02 0.9983 -7.166 4.9041)"/><ellipse cx="81.3" cy="126.5" class="st242" rx="3.9" ry="3.9" transform="matrix(0.9983 -5.770196e-02 5.770196e-02 0.9983 -7.166 4.9041)"/><ellipse cx="81.3" cy="126.5" class="st243" rx="3.8" ry="3.8" transform="matrix(0.9983 -5.770196e-02 5.770196e-02 0.9983 -7.166 4.9041)"/><ellipse cx="81.3" cy="126.5" class="st244" rx="3.8" ry="3.8" transform="matrix(0.9983 -5.770196e-02 5.770196e-02 0.9983 -7.166 4.9041)"/><ellipse cx="81.3" cy="126.5" class="st245" rx="3.8" ry="3.8" transform="matrix(0.9983 -5.770196e-02 5.770196e-02 0.9983 -7.166 4.9041)"/><ellipse cx="81.3" cy="126.5" class="st246" rx="3.7" ry="3.7" transform="matrix(0.9983 -5.770196e-02 5.770196e-02 0.9983 -7.166 4.9041)"/><ellipse cx="81.3" cy="126.5" class="st247" rx="3.7" ry="3.7" transform="matrix(0.9983 -5.770196e-02 5.770196e-02 0.9983 -7.166 4.9041)"/><ellipse cx="81.3" cy="126.5" class="st248" rx="3.6" ry="3.6" transform="matrix(0.9983 -5.770196e-02 5.770196e-02 0.9983 -7.166 4.9041)"/><ellipse cx="81.3" cy="126.5" class="st249" rx="3.6" ry="3.6" transform="matrix(0.9983 -5.770196e-02 5.770196e-02 0.9983 -7.166 4.9041)"/><ellipse cx="81.3" cy="126.5" class="st250" rx="3.5" ry="3.5" transform="matrix(0.9983 -5.770196e-02 5.770196e-02 0.9983 -7.166 4.9041)"/><ellipse cx="81.3" cy="126.5" class="st251" rx="3.5" ry="3.5" transform="matrix(0.9983 -5.770196e-02 5.770196e-02 0.9983 -7.166 4.9041)"/><ellipse cx="81.3" cy="126.5" class="st252" rx="3.4" ry="3.4" transform="matrix(0.9983 -5.770196e-02 5.770196e-02 0.9983 -7.166 4.9041)"/><ellipse cx="81.3" cy="126.5" class="st253" rx="3.4" ry="3.4" transform="matrix(0.9983 -5.770196e-02 5.770196e-02 0.9983 -7.166 4.9041)"/><ellipse cx="81.3" cy="126.5" class="st254" rx="3.4" ry="3.4" transform="matrix(0.9983 -5.770196e-02 5.770196e-02 0.9983 -7.166 4.9041)"/><ellipse cx="81.3" cy="126.5" class="st254" rx="3.3" ry="3.3" transform="matrix(0.9983 -5.770196e-02 5.770196e-02 0.9983 -7.166 4.9041)"/><ellipse cx="81.3" cy="126.5" class="st255" rx="3.3" ry="3.3" transform="matrix(0.9983 -5.770196e-02 5.770196e-02 0.9983 -7.166 4.9041)"/><ellipse cx="81.3" cy="126.5" class="st256" rx="3.2" ry="3.2" transform="matrix(0.9983 -5.770196e-02 5.770196e-02 0.9983 -7.166 4.9041)"/><ellipse cx="81.3" cy="126.5" class="st256" rx="3.2" ry="3.2" transform="matrix(0.9983 -5.770196e-02 5.770196e-02 0.9983 -7.166 4.9041)"/><ellipse cx="81.3" cy="126.5" class="st257" rx="3.1" ry="3.1" transform="matrix(0.9983 -5.770196e-02 5.770196e-02 0.9983 -7.166 4.9041)"/><ellipse cx="81.3" cy="126.5" class="st258" rx="3.1" ry="3.1" transform="matrix(0.9983 -5.770196e-02 5.770196e-02 0.9983 -7.166 4.9041)"/><ellipse cx="81.3" cy="126.5" class="st259" rx="3" ry="3" transform="matrix(0.9983 -5.770196e-02 5.770196e-02 0.9983 -7.166 4.9041)"/><ellipse cx="81.3" cy="126.5" class="st260" rx="3" ry="3" transform="matrix(0.9983 -5.770196e-02 5.770196e-02 0.9983 -7.166 4.9041)"/><ellipse cx="81.3" cy="126.5" class="st261" rx="3" ry="3" transform="matrix(0.9983 -5.770196e-02 5.770196e-02 0.9983 -7.166 4.9041)"/><ellipse cx="81.3" cy="126.5" class="st262" rx="2.9" ry="2.9" transform="matrix(0.9983 -5.770196e-02 5.770196e-02 0.9983 -7.166 4.9041)"/><ellipse cx="81.3" cy="126.5" class="st263" rx="2.9" ry="2.9" transform="matrix(0.9983 -5.770196e-02 5.770196e-02 0.9983 -7.166 4.9041)"/><ellipse cx="81.3" cy="126.5" class="st264" rx="2.8" ry="2.8" transform="matrix(0.9983 -5.770196e-02 5.770196e-02 0.9983 -7.166 4.9041)"/><ellipse cx="81.3" cy="126.5" class="st265" rx="2.8" ry="2.8" transform="matrix(0.9983 -5.770196e-02 5.770196e-02 0.9983 -7.166 4.9041)"/><ellipse cx="81.3" cy="126.5" class="st266" rx="2.7" ry="2.7" transform="matrix(0.9983 -5.770196e-02 5.770196e-02 0.9983 -7.166 4.9041)"/><ellipse cx="81.3" cy="126.5" class="st267" rx="2.7" ry="2.7" transform="matrix(0.9983 -5.770196e-02 5.770196e-02 0.9983 -7.166 4.9041)"/><ellipse cx="81.3" cy="126.5" class="st268" rx="2.6" ry="2.6" transform="matrix(0.9983 -5.770196e-02 5.770196e-02 0.9983 -7.166 4.9041)"/><ellipse cx="81.3" cy="126.5" class="st269" rx="2.6" ry="2.6" transform="matrix(0.9983 -5.770196e-02 5.770196e-02 0.9983 -7.166 4.9041)"/><ellipse cx="81.3" cy="126.5" class="st270" rx="2.6" ry="2.6" transform="matrix(0.9983 -5.770196e-02 5.770196e-02 0.9983 -7.166 4.9041)"/><ellipse cx="81.3" cy="126.5" class="st271" rx="2.5" ry="2.5" transform="matrix(0.9983 -5.770196e-02 5.770196e-02 0.9983 -7.166 4.9041)"/><ellipse cx="81.3" cy="126.5" class="st272" rx="2.5" ry="2.5" transform="matrix(0.9983 -5.770196e-02 5.770196e-02 0.9983 -7.166 4.9041)"/><ellipse cx="81.3" cy="126.5" class="st273" rx="2.4" ry="2.4" transform="matrix(0.9983 -5.770196e-02 5.770196e-02 0.9983 -7.166 4.9041)"/><ellipse cx="81.3" cy="126.5" class="st274" rx="2.4" ry="2.4" transform="matrix(0.9983 -5.770196e-02 5.770196e-02 0.9983 -7.166 4.9041)"/><ellipse cx="81.3" cy="126.5" class="st275" rx="2.3" ry="2.3" transform="matrix(0.9983 -5.770196e-02 5.770196e-02 0.9983 -7.166 4.9041)"/><ellipse cx="81.3" cy="126.5" class="st276" rx="2.3" ry="2.3" transform="matrix(0.9983 -5.770196e-02 5.770196e-02 0.9983 -7.166 4.9041)"/><ellipse cx="81.3" cy="126.5" class="st276" rx="2.2" ry="2.2" transform="matrix(0.9983 -5.770196e-02 5.770196e-02 0.9983 -7.166 4.9041)"/><ellipse cx="81.3" cy="126.5" class="st277" rx="2.2" ry="2.2" transform="matrix(0.9983 -5.770196e-02 5.770196e-02 0.9983 -7.166 4.9041)"/><ellipse cx="81.3" cy="126.5" class="st278" rx="2.1" ry="2.1" transform="matrix(0.9983 -5.770196e-02 5.770196e-02 0.9983 -7.166 4.9041)"/><ellipse cx="81.3" cy="126.5" class="st279" rx="2.1" ry="2.1" transform="matrix(0.9983 -5.770196e-02 5.770196e-02 0.9983 -7.166 4.9041)"/><ellipse cx="81.3" cy="126.5" class="st280" rx="2.1" ry="2.1" transform="matrix(0.9983 -5.770196e-02 5.770196e-02 0.9983 -7.166 4.9041)"/><ellipse cx="81.3" cy="126.5" class="st281" rx="2" ry="2" transform="matrix(0.9983 -5.770196e-02 5.770196e-02 0.9983 -7.166 4.9041)"/><ellipse cx="81.3" cy="126.5" class="st282" rx="2" ry="2" transform="matrix(0.9983 -5.770196e-02 5.770196e-02 0.9983 -7.166 4.9041)"/><ellipse cx="81.3" cy="126.5" class="st283" rx="1.9" ry="1.9" transform="matrix(0.9983 -5.770196e-02 5.770196e-02 0.9983 -7.166 4.9041)"/><ellipse cx="81.3" cy="126.5" class="st284" rx="1.9" ry="1.9" transform="matrix(0.9983 -5.770196e-02 5.770196e-02 0.9983 -7.166 4.9041)"/><ellipse cx="81.3" cy="126.5" class="st285" rx="1.8" ry="1.8" transform="matrix(0.9983 -5.770196e-02 5.770196e-02 0.9983 -7.166 4.9041)"/><ellipse cx="81.3" cy="126.5" class="st286" rx="1.8" ry="1.8" transform="matrix(0.9983 -5.770196e-02 5.770196e-02 0.9983 -7.166 4.9041)"/><ellipse cx="81.3" cy="126.5" class="st287" rx="1.7" ry="1.7" transform="matrix(0.9983 -5.770196e-02 5.770196e-02 0.9983 -7.166 4.9041)"/><ellipse cx="81.3" cy="126.5" class="st288" rx="1.7" ry="1.7" transform="matrix(0.9983 -5.770196e-02 5.770196e-02 0.9983 -7.166 4.9041)"/><ellipse cx="81.3" cy="126.5" class="st289" rx="1.7" ry="1.7" transform="matrix(0.9983 -5.770196e-02 5.770196e-02 0.9983 -7.166 4.9041)"/><ellipse cx="81.3" cy="126.5" class="st290" rx="1.6" ry="1.6" transform="matrix(0.9983 -5.770196e-02 5.770196e-02 0.9983 -7.166 4.9041)"/><ellipse cx="81.3" cy="126.5" class="st291" rx="1.6" ry="1.6" transform="matrix(0.9983 -5.770196e-02 5.770196e-02 0.9983 -7.166 4.9041)"/><ellipse cx="81.3" cy="126.5" class="st292" rx="1.5" ry="1.5" transform="matrix(0.9983 -5.770196e-02 5.770196e-02 0.9983 -7.166 4.9041)"/><ellipse cx="81.3" cy="126.5" class="st293" rx="1.5" ry="1.5" transform="matrix(0.9983 -5.770196e-02 5.770196e-02 0.9983 -7.166 4.9041)"/><ellipse cx="81.3" cy="126.5" class="st294" rx="1.4" ry="1.4" transform="matrix(0.9983 -5.770196e-02 5.770196e-02 0.9983 -7.166 4.9041)"/><ellipse cx="81.3" cy="126.5" class="st295" rx="1.4" ry="1.4" transform="matrix(0.9983 -5.770196e-02 5.770196e-02 0.9983 -7.166 4.9041)"/><ellipse cx="81.3" cy="126.5" class="st296" rx="1.3" ry="1.3" transform="matrix(0.9983 -5.770196e-02 5.770196e-02 0.9983 -7.166 4.9041)"/><ellipse cx="81.3" cy="126.5" class="st297" rx="1.3" ry="1.3" transform="matrix(0.9983 -5.770196e-02 5.770196e-02 0.9983 -7.166 4.9041)"/><ellipse cx="81.3" cy="126.5" class="st298" rx="1.3" ry="1.3" transform="matrix(0.9983 -5.770196e-02 5.770196e-02 0.9983 -7.166 4.9041)"/><ellipse cx="81.3" cy="126.5" class="st299" rx="1.2" ry="1.2" transform="matrix(0.9983 -5.770196e-02 5.770196e-02 0.9983 -7.166 4.9041)"/><ellipse cx="81.3" cy="126.5" class="st300" rx="1.2" ry="1.2" transform="matrix(0.9983 -5.770196e-02 5.770196e-02 0.9983 -7.166 4.9041)"/><ellipse cx="81.3" cy="126.5" class="st301" rx="1.1" ry="1.1" transform="matrix(0.9983 -5.770196e-02 5.770196e-02 0.9983 -7.166 4.9041)"/><ellipse cx="81.3" cy="126.5" class="st302" rx="1.1" ry="1.1" transform="matrix(0.9983 -5.770196e-02 5.770196e-02 0.9983 -7.166 4.9041)"/><ellipse cx="81.3" cy="126.5" class="st303" rx="1" ry="1" transform="matrix(0.9983 -5.770196e-02 5.770196e-02 0.9983 -7.166 4.9041)"/><ellipse cx="81.3" cy="126.5" class="st304" rx="1" ry="1" transform="matrix(0.9983 -5.770196e-02 5.770196e-02 0.9983 -7.166 4.9041)"/><ellipse cx="81.3" cy="126.5" class="st305" rx=".9" ry=".9" transform="matrix(0.9983 -5.770196e-02 5.770196e-02 0.9983 -7.166 4.9041)"/><ellipse cx="81.3" cy="126.5" class="st306" rx=".9" ry=".9" transform="matrix(0.9983 -5.770196e-02 5.770196e-02 0.9983 -7.166 4.9041)"/><ellipse cx="81.3" cy="126.5" class="st307" rx=".9" ry=".9" transform="matrix(0.9983 -5.770196e-02 5.770196e-02 0.9983 -7.166 4.9041)"/><ellipse cx="81.3" cy="126.5" class="st308" rx=".8" ry=".8" transform="matrix(0.9983 -5.770196e-02 5.770196e-02 0.9983 -7.166 4.9041)"/><ellipse cx="81.3" cy="126.5" class="st309" rx=".8" ry=".8" transform="matrix(0.9983 -5.770196e-02 5.770196e-02 0.9983 -7.166 4.9041)"/><ellipse cx="81.3" cy="126.5" class="st310" rx=".7" ry=".7" transform="matrix(0.9983 -5.770196e-02 5.770196e-02 0.9983 -7.166 4.9041)"/><ellipse cx="81.3" cy="126.5" class="st311" rx=".7" ry=".7" transform="matrix(0.9983 -5.770196e-02 5.770196e-02 0.9983 -7.166 4.9041)"/><ellipse cx="81.3" cy="126.5" class="st312" rx=".6" ry=".6" transform="matrix(0.9983 -5.770196e-02 5.770196e-02 0.9983 -7.166 4.9041)"/><ellipse cx="81.3" cy="126.5" class="st313" rx=".6" ry=".6" transform="matrix(0.9983 -5.770196e-02 5.770196e-02 0.9983 -7.166 4.9041)"/><ellipse cx="81.3" cy="126.5" class="st314" rx=".5" ry=".5" transform="matrix(0.9983 -5.770196e-02 5.770196e-02 0.9983 -7.166 4.9041)"/><ellipse cx="81.3" cy="126.5" class="st315" rx=".5" ry=".5" transform="matrix(0.9983 -5.770196e-02 5.770196e-02 0.9983 -7.166 4.9041)"/><ellipse cx="81.3" cy="126.5" class="st316" rx=".4" ry=".4" transform="matrix(0.9983 -5.770196e-02 5.770196e-02 0.9983 -7.166 4.9041)"/><ellipse cx="81.3" cy="126.5" class="st317" rx=".4" ry=".4" transform="matrix(0.9983 -5.770196e-02 5.770196e-02 0.9983 -7.166 4.9041)"/><ellipse cx="81.3" cy="126.5" class="st318" rx=".4" ry=".4" transform="matrix(0.9983 -5.770196e-02 5.770196e-02 0.9983 -7.166 4.9041)"/><ellipse cx="81.3" cy="126.5" class="st319" rx=".3" ry=".3" transform="matrix(0.9983 -5.770196e-02 5.770196e-02 0.9983 -7.166 4.9041)"/><ellipse cx="81.3" cy="126.5" class="st320" rx=".3" ry=".3" transform="matrix(0.9983 -5.770196e-02 5.770196e-02 0.9983 -7.166 4.9041)"/><ellipse cx="81.3" cy="126.5" class="st321" rx=".2" ry=".2" transform="matrix(0.9983 -5.770196e-02 5.770196e-02 0.9983 -7.166 4.9041)"/><ellipse cx="81.3" cy="126.5" class="st322" rx=".2" ry=".2" transform="matrix(0.9983 -5.770196e-02 5.770196e-02 0.9983 -7.166 4.9041)"/><ellipse cx="81.3" cy="126.5" class="st323" rx=".1" ry=".1" transform="matrix(0.9983 -5.770196e-02 5.770196e-02 0.9983 -7.166 4.9041)"/><ellipse cx="81.3" cy="126.5" class="st324" rx=".1" ry=".1" transform="matrix(0.9983 -5.770196e-02 5.770196e-02 0.9983 -7.166 4.9041)"/><ellipse cx="81.3" cy="126.5" class="st325" rx="0" ry="0" transform="matrix(0.9983 -5.770196e-02 5.770196e-02 0.9983 -7.166 4.9041)"/></g></g><g><g><defs><path id="SVGID_7_" d="M96.4,128.5l-1.2-0.8c-0.2-0.1-0.5-0.1-0.6,0.1l-0.1,0.2l-0.1-0.1l-0.4,0.6l0.1,0.1l-2.5,4.1 c-0.2,0.3-0.5,0.4-0.9,0.4c-1.2-0.1-2.4,0.4-3,1.4l-4.3,7l6.1,3.5c2.2-3.6,4.1-6.8,4.2-6.8c0.6-1,0.6-2.3-0.1-3.3 c-0.2-0.3-0.2-0.7,0-1l2.5-4.1l0.1,0.1l0.4-0.6l-0.1-0.1l0.1-0.2C96.7,128.9,96.6,128.6,96.4,128.5z"/></defs><clipPath id="SVGID_8_"><use overflow="visible" xlink:href="#SVGID_7_"/></clipPath><rect width="13.3" height="17.5" x="83.4" y="127.6" class="st326"/><ellipse cx="86.1" cy="133.9" class="st326" rx="4.3" ry="4.3" transform="matrix(0.9983 -5.770196e-02 5.770196e-02 0.9983 -7.582 5.1928)"/><ellipse cx="86.1" cy="133.9" class="st326" rx="4.2" ry="4.2" transform="matrix(0.9983 -5.770196e-02 5.770196e-02 0.9983 -7.582 5.1928)"/><ellipse cx="86.1" cy="133.9" class="st327" rx="4.2" ry="4.2" transform="matrix(0.9983 -5.770196e-02 5.770196e-02 0.9983 -7.582 5.1928)"/><ellipse cx="86.1" cy="133.9" class="st328" rx="4.1" ry="4.1" transform="matrix(0.9983 -5.770196e-02 5.770196e-02 0.9983 -7.582 5.1928)"/><ellipse cx="86.1" cy="133.9" class="st329" rx="4.1" ry="4.1" transform="matrix(0.9983 -5.770196e-02 5.770196e-02 0.9983 -7.582 5.1928)"/><ellipse cx="86.1" cy="133.9" class="st330" rx="4.1" ry="4.1" transform="matrix(0.9983 -5.770196e-02 5.770196e-02 0.9983 -7.582 5.1928)"/><ellipse cx="86.1" cy="133.9" class="st331" rx="4" ry="4" transform="matrix(0.9983 -5.770196e-02 5.770196e-02 0.9983 -7.582 5.1928)"/><ellipse cx="86.1" cy="133.9" class="st332" rx="4" ry="4" transform="matrix(0.9983 -5.770196e-02 5.770196e-02 0.9983 -7.582 5.1928)"/><ellipse cx="86.1" cy="133.9" class="st333" rx="3.9" ry="3.9" transform="matrix(0.9983 -5.770196e-02 5.770196e-02 0.9983 -7.582 5.1928)"/><ellipse cx="86.1" cy="133.9" class="st334" rx="3.9" ry="3.9" transform="matrix(0.9983 -5.770196e-02 5.770196e-02 0.9983 -7.582 5.1928)"/><ellipse cx="86.1" cy="133.9" class="st335" rx="3.9" ry="3.9" transform="matrix(0.9983 -5.770196e-02 5.770196e-02 0.9983 -7.582 5.1928)"/><ellipse cx="86.1" cy="133.9" class="st336" rx="3.8" ry="3.8" transform="matrix(0.9983 -5.770196e-02 5.770196e-02 0.9983 -7.582 5.1928)"/><ellipse cx="86.1" cy="133.9" class="st337" rx="3.8" ry="3.8" transform="matrix(0.9983 -5.770196e-02 5.770196e-02 0.9983 -7.582 5.1928)"/><ellipse cx="86.1" cy="133.9" class="st338" rx="3.7" ry="3.7" transform="matrix(0.9983 -5.770196e-02 5.770196e-02 0.9983 -7.582 5.1928)"/><ellipse cx="86.1" cy="133.9" class="st339" rx="3.7" ry="3.7" transform="matrix(0.9983 -5.770196e-02 5.770196e-02 0.9983 -7.582 5.1928)"/><ellipse cx="86.1" cy="133.9" class="st340" rx="3.6" ry="3.6" transform="matrix(0.9983 -5.770196e-02 5.770196e-02 0.9983 -7.582 5.1928)"/><ellipse cx="86.1" cy="133.9" class="st341" rx="3.6" ry="3.6" transform="matrix(0.9983 -5.770196e-02 5.770196e-02 0.9983 -7.582 5.1928)"/><ellipse cx="86.1" cy="133.9" class="st342" rx="3.6" ry="3.6" transform="matrix(0.9983 -5.770196e-02 5.770196e-02 0.9983 -7.582 5.1928)"/><ellipse cx="86.1" cy="133.9" class="st343" rx="3.5" ry="3.5" transform="matrix(0.9983 -5.770196e-02 5.770196e-02 0.9983 -7.582 5.1928)"/><ellipse cx="86.1" cy="133.9" class="st344" rx="3.5" ry="3.5" transform="matrix(0.9983 -5.770196e-02 5.770196e-02 0.9983 -7.582 5.1928)"/><ellipse cx="86.1" cy="133.9" class="st345" rx="3.4" ry="3.4" transform="matrix(0.9983 -5.770196e-02 5.770196e-02 0.9983 -7.582 5.1928)"/><ellipse cx="86.1" cy="133.9" class="st346" rx="3.4" ry="3.4" transform="matrix(0.9983 -5.770196e-02 5.770196e-02 0.9983 -7.582 5.1928)"/><ellipse cx="86.1" cy="133.9" class="st347" rx="3.3" ry="3.3" transform="matrix(0.9983 -5.770196e-02 5.770196e-02 0.9983 -7.582 5.1928)"/><ellipse cx="86.1" cy="133.9" class="st348" rx="3.3" ry="3.3" transform="matrix(0.9983 -5.770196e-02 5.770196e-02 0.9983 -7.582 5.1928)"/><ellipse cx="86.1" cy="133.9" class="st349" rx="3.3" ry="3.3" transform="matrix(0.9983 -5.770196e-02 5.770196e-02 0.9983 -7.582 5.1928)"/><ellipse cx="86.1" cy="133.9" class="st350" rx="3.2" ry="3.2" transform="matrix(0.9983 -5.770196e-02 5.770196e-02 0.9983 -7.582 5.1928)"/><ellipse cx="86.1" cy="133.9" class="st351" rx="3.2" ry="3.2" transform="matrix(0.9983 -5.770196e-02 5.770196e-02 0.9983 -7.582 5.1928)"/><ellipse cx="86.1" cy="133.9" class="st352" rx="3.1" ry="3.1" transform="matrix(0.9983 -5.770196e-02 5.770196e-02 0.9983 -7.582 5.1928)"/><ellipse cx="86.1" cy="133.9" class="st353" rx="3.1" ry="3.1" transform="matrix(0.9983 -5.770196e-02 5.770196e-02 0.9983 -7.582 5.1928)"/><ellipse cx="86.1" cy="133.9" class="st354" rx="3.1" ry="3.1" transform="matrix(0.9983 -5.770196e-02 5.770196e-02 0.9983 -7.582 5.1928)"/><ellipse cx="86.1" cy="133.9" class="st355" rx="3" ry="3" transform="matrix(0.9983 -5.770196e-02 5.770196e-02 0.9983 -7.582 5.1928)"/><ellipse cx="86.1" cy="133.9" class="st356" rx="3" ry="3" transform="matrix(0.9983 -5.770196e-02 5.770196e-02 0.9983 -7.582 5.1928)"/><ellipse cx="86.1" cy="133.9" class="st357" rx="2.9" ry="2.9" transform="matrix(0.9983 -5.770196e-02 5.770196e-02 0.9983 -7.582 5.1928)"/><ellipse cx="86.1" cy="133.9" class="st358" rx="2.9" ry="2.9" transform="matrix(0.9983 -5.770196e-02 5.770196e-02 0.9983 -7.582 5.1928)"/><ellipse cx="86.1" cy="133.9" class="st359" rx="2.8" ry="2.8" transform="matrix(0.9983 -5.770196e-02 5.770196e-02 0.9983 -7.582 5.1928)"/><ellipse cx="86.1" cy="133.9" class="st360" rx="2.8" ry="2.8" transform="matrix(0.9983 -5.770196e-02 5.770196e-02 0.9983 -7.582 5.1928)"/><ellipse cx="86.1" cy="133.9" class="st361" rx="2.8" ry="2.8" transform="matrix(0.9983 -5.770196e-02 5.770196e-02 0.9983 -7.582 5.1928)"/><ellipse cx="86.1" cy="133.9" class="st362" rx="2.7" ry="2.7" transform="matrix(0.9983 -5.770196e-02 5.770196e-02 0.9983 -7.582 5.1928)"/><ellipse cx="86.1" cy="133.9" class="st363" rx="2.7" ry="2.7" transform="matrix(0.9983 -5.770196e-02 5.770196e-02 0.9983 -7.582 5.1928)"/><ellipse cx="86.1" cy="133.9" class="st364" rx="2.6" ry="2.6" transform="matrix(0.9983 -5.770196e-02 5.770196e-02 0.9983 -7.582 5.1928)"/><ellipse cx="86.1" cy="133.9" class="st365" rx="2.6" ry="2.6" transform="matrix(0.9983 -5.770196e-02 5.770196e-02 0.9983 -7.582 5.1928)"/><ellipse cx="86.1" cy="133.9" class="st366" rx="2.6" ry="2.6" transform="matrix(0.9983 -5.770196e-02 5.770196e-02 0.9983 -7.582 5.1928)"/><ellipse cx="86.1" cy="133.9" class="st367" rx="2.5" ry="2.5" transform="matrix(0.9983 -5.770196e-02 5.770196e-02 0.9983 -7.582 5.1928)"/><ellipse cx="86.1" cy="133.9" class="st368" rx="2.5" ry="2.5" transform="matrix(0.9983 -5.770196e-02 5.770196e-02 0.9983 -7.582 5.1928)"/><ellipse cx="86.1" cy="133.9" class="st369" rx="2.4" ry="2.4" transform="matrix(0.9983 -5.770196e-02 5.770196e-02 0.9983 -7.582 5.1928)"/><ellipse cx="86.1" cy="133.9" class="st370" rx="2.4" ry="2.4" transform="matrix(0.9983 -5.770196e-02 5.770196e-02 0.9983 -7.582 5.1928)"/><ellipse cx="86.1" cy="133.9" class="st371" rx="2.3" ry="2.3" transform="matrix(0.9983 -5.770196e-02 5.770196e-02 0.9983 -7.582 5.1928)"/><ellipse cx="86.1" cy="133.9" class="st372" rx="2.3" ry="2.3" transform="matrix(0.9983 -5.770196e-02 5.770196e-02 0.9983 -7.582 5.1928)"/><ellipse cx="86.1" cy="133.9" class="st373" rx="2.3" ry="2.3" transform="matrix(0.9983 -5.770196e-02 5.770196e-02 0.9983 -7.582 5.1928)"/><ellipse cx="86.1" cy="133.9" class="st374" rx="2.2" ry="2.2" transform="matrix(0.9983 -5.770196e-02 5.770196e-02 0.9983 -7.582 5.1928)"/><ellipse cx="86.1" cy="133.9" class="st375" rx="2.2" ry="2.2" transform="matrix(0.9983 -5.770196e-02 5.770196e-02 0.9983 -7.582 5.1928)"/><ellipse cx="86.1" cy="133.9" class="st376" rx="2.1" ry="2.1" transform="matrix(0.9983 -5.770196e-02 5.770196e-02 0.9983 -7.582 5.1928)"/><ellipse cx="86.1" cy="133.9" class="st377" rx="2.1" ry="2.1" transform="matrix(0.9983 -5.770196e-02 5.770196e-02 0.9983 -7.582 5.1928)"/><ellipse cx="86.1" cy="133.9" class="st378" rx="2.1" ry="2.1" transform="matrix(0.9983 -5.770196e-02 5.770196e-02 0.9983 -7.582 5.1928)"/><ellipse cx="86.1" cy="133.9" class="st379" rx="2" ry="2" transform="matrix(0.9983 -5.770196e-02 5.770196e-02 0.9983 -7.582 5.1928)"/><ellipse cx="86.1" cy="133.9" class="st380" rx="2" ry="2" transform="matrix(0.9983 -5.770196e-02 5.770196e-02 0.9983 -7.582 5.1928)"/><ellipse cx="86.1" cy="133.9" class="st381" rx="1.9" ry="1.9" transform="matrix(0.9983 -5.770196e-02 5.770196e-02 0.9983 -7.582 5.1928)"/><ellipse cx="86.1" cy="133.9" class="st382" rx="1.9" ry="1.9" transform="matrix(0.9983 -5.770196e-02 5.770196e-02 0.9983 -7.582 5.1928)"/><ellipse cx="86.1" cy="133.9" class="st383" rx="1.8" ry="1.8" transform="matrix(0.9983 -5.770196e-02 5.770196e-02 0.9983 -7.582 5.1928)"/><ellipse cx="86.1" cy="133.9" class="st384" rx="1.8" ry="1.8" transform="matrix(0.9983 -5.770196e-02 5.770196e-02 0.9983 -7.582 5.1928)"/><ellipse cx="86.1" cy="133.9" class="st385" rx="1.8" ry="1.8" transform="matrix(0.9983 -5.770196e-02 5.770196e-02 0.9983 -7.582 5.1928)"/><ellipse cx="86.1" cy="133.9" class="st386" rx="1.7" ry="1.7" transform="matrix(0.9983 -5.770196e-02 5.770196e-02 0.9983 -7.582 5.1928)"/><ellipse cx="86.1" cy="133.9" class="st387" rx="1.7" ry="1.7" transform="matrix(0.9983 -5.770196e-02 5.770196e-02 0.9983 -7.582 5.1928)"/><ellipse cx="86.1" cy="133.9" class="st388" rx="1.6" ry="1.6" transform="matrix(0.9983 -5.770196e-02 5.770196e-02 0.9983 -7.582 5.1928)"/><ellipse cx="86.1" cy="133.9" class="st389" rx="1.6" ry="1.6" transform="matrix(0.9983 -5.770196e-02 5.770196e-02 0.9983 -7.582 5.1928)"/><ellipse cx="86.1" cy="133.9" class="st390" rx="1.5" ry="1.5" transform="matrix(0.9983 -5.770196e-02 5.770196e-02 0.9983 -7.582 5.1928)"/><ellipse cx="86.1" cy="133.9" class="st391" rx="1.5" ry="1.5" transform="matrix(0.9983 -5.770196e-02 5.770196e-02 0.9983 -7.582 5.1928)"/><ellipse cx="86.1" cy="133.9" class="st392" rx="1.5" ry="1.5" transform="matrix(0.9983 -5.770196e-02 5.770196e-02 0.9983 -7.582 5.1928)"/><ellipse cx="86.1" cy="133.9" class="st393" rx="1.4" ry="1.4" transform="matrix(0.9983 -5.770196e-02 5.770196e-02 0.9983 -7.582 5.1928)"/><ellipse cx="86.1" cy="133.9" class="st394" rx="1.4" ry="1.4" transform="matrix(0.9983 -5.770196e-02 5.770196e-02 0.9983 -7.582 5.1928)"/><ellipse cx="86.1" cy="133.9" class="st395" rx="1.3" ry="1.3" transform="matrix(0.9983 -5.770196e-02 5.770196e-02 0.9983 -7.582 5.1928)"/><ellipse cx="86.1" cy="133.9" class="st396" rx="1.3" ry="1.3" transform="matrix(0.9983 -5.770196e-02 5.770196e-02 0.9983 -7.582 5.1928)"/><ellipse cx="86.1" cy="133.9" class="st397" rx="1.3" ry="1.3" transform="matrix(0.9983 -5.770196e-02 5.770196e-02 0.9983 -7.582 5.1928)"/><ellipse cx="86.1" cy="133.9" class="st398" rx="1.2" ry="1.2" transform="matrix(0.9983 -5.770196e-02 5.770196e-02 0.9983 -7.582 5.1928)"/><ellipse cx="86.1" cy="133.9" class="st399" rx="1.2" ry="1.2" transform="matrix(0.9983 -5.770196e-02 5.770196e-02 0.9983 -7.582 5.1928)"/><ellipse cx="86.1" cy="133.9" class="st400" rx="1.1" ry="1.1" transform="matrix(0.9983 -5.770196e-02 5.770196e-02 0.9983 -7.582 5.1928)"/><ellipse cx="86.1" cy="133.9" class="st401" rx="1.1" ry="1.1" transform="matrix(0.9983 -5.770196e-02 5.770196e-02 0.9983 -7.582 5.1928)"/><ellipse cx="86.1" cy="133.9" class="st402" rx="1" ry="1" transform="matrix(0.9983 -5.770196e-02 5.770196e-02 0.9983 -7.582 5.1928)"/><ellipse cx="86.1" cy="133.9" class="st403" rx="1" ry="1" transform="matrix(0.9983 -5.770196e-02 5.770196e-02 0.9983 -7.582 5.1928)"/><ellipse cx="86.1" cy="133.9" class="st404" rx="1" ry="1" transform="matrix(0.9983 -5.770196e-02 5.770196e-02 0.9983 -7.582 5.1928)"/><ellipse cx="86.1" cy="133.9" class="st405" rx=".9" ry=".9" transform="matrix(0.9983 -5.770196e-02 5.770196e-02 0.9983 -7.582 5.1928)"/><ellipse cx="86.1" cy="133.9" class="st406" rx=".9" ry=".9" transform="matrix(0.9983 -5.770196e-02 5.770196e-02 0.9983 -7.582 5.1928)"/><ellipse cx="86.1" cy="133.9" class="st407" rx=".8" ry=".8" transform="matrix(0.9983 -5.770196e-02 5.770196e-02 0.9983 -7.582 5.1928)"/><ellipse cx="86.1" cy="133.9" class="st408" rx=".8" ry=".8" transform="matrix(0.9983 -5.770196e-02 5.770196e-02 0.9983 -7.582 5.1928)"/><ellipse cx="86.1" cy="133.9" class="st409" rx=".8" ry=".8" transform="matrix(0.9983 -5.770196e-02 5.770196e-02 0.9983 -7.582 5.1928)"/><ellipse cx="86.1" cy="133.9" class="st410" rx=".7" ry=".7" transform="matrix(0.9983 -5.770196e-02 5.770196e-02 0.9983 -7.582 5.1928)"/><ellipse cx="86.1" cy="133.9" class="st411" rx=".7" ry=".7" transform="matrix(0.9983 -5.770196e-02 5.770196e-02 0.9983 -7.582 5.1928)"/><ellipse cx="86.1" cy="133.9" class="st412" rx=".6" ry=".6" transform="matrix(0.9983 -5.770196e-02 5.770196e-02 0.9983 -7.582 5.1928)"/><ellipse cx="86.1" cy="133.9" class="st413" rx=".6" ry=".6" transform="matrix(0.9983 -5.770196e-02 5.770196e-02 0.9983 -7.582 5.1928)"/><ellipse cx="86.1" cy="133.9" class="st414" rx=".5" ry=".5" transform="matrix(0.9983 -5.770196e-02 5.770196e-02 0.9983 -7.582 5.1928)"/><ellipse cx="86.1" cy="133.9" class="st415" rx=".5" ry=".5" transform="matrix(0.9983 -5.770196e-02 5.770196e-02 0.9983 -7.582 5.1928)"/><ellipse cx="86.1" cy="133.9" class="st416" rx=".5" ry=".5" transform="matrix(0.9983 -5.770196e-02 5.770196e-02 0.9983 -7.582 5.1928)"/><ellipse cx="86.1" cy="133.9" class="st417" rx=".4" ry=".4" transform="matrix(0.9983 -5.770196e-02 5.770196e-02 0.9983 -7.582 5.1928)"/><ellipse cx="86.1" cy="133.9" class="st418" rx=".4" ry=".4" transform="matrix(0.9983 -5.770196e-02 5.770196e-02 0.9983 -7.582 5.1928)"/><ellipse cx="86.1" cy="133.9" class="st419" rx=".3" ry=".3" transform="matrix(0.9983 -5.770196e-02 5.770196e-02 0.9983 -7.582 5.1928)"/><ellipse cx="86.1" cy="133.9" class="st420" rx=".3" ry=".3" transform="matrix(0.9983 -5.770196e-02 5.770196e-02 0.9983 -7.582 5.1928)"/><ellipse cx="86.1" cy="133.9" class="st421" rx=".3" ry=".3" transform="matrix(0.9983 -5.770196e-02 5.770196e-02 0.9983 -7.582 5.1928)"/><ellipse cx="86.1" cy="133.9" class="st422" rx=".2" ry=".2" transform="matrix(0.9983 -5.770196e-02 5.770196e-02 0.9983 -7.582 5.1928)"/><ellipse cx="86.1" cy="133.9" class="st423" rx=".2" ry=".2" transform="matrix(0.9983 -5.770196e-02 5.770196e-02 0.9983 -7.582 5.1928)"/><ellipse cx="86.1" cy="133.9" class="st424" rx=".1" ry=".1" transform="matrix(0.9983 -5.770196e-02 5.770196e-02 0.9983 -7.582 5.1928)"/><ellipse cx="86.1" cy="133.9" class="st425" rx=".1" ry=".1" transform="matrix(0.9983 -5.770196e-02 5.770196e-02 0.9983 -7.582 5.1928)"/><ellipse cx="86.1" cy="133.9" class="st426" rx="0" ry="0" transform="matrix(0.9983 -5.770196e-02 5.770196e-02 0.9983 -7.582 5.1928)"/></g></g><g><path d="M78.6,171.1c-5.9,0-11.5-2.1-11.8-2.2l0.4-0.9c0.1,0.1,14.3,5.3,20.8-0.9c4-3.7,4.3-10.9,1.1-21.4 c-1.1-0.7-8.1-5.1-10.8-5.3l0.1-1c3.2,0.3,11.1,5.3,11.4,5.5l0.2,0.1l0.1,0.2c3.4,11,3,18.6-1.3,22.6 C86,170.3,82.3,171.1,78.6,171.1z"/></g><g><path d="M73.6,136.3L73.6,136.3l-0.2,0.1l-0.1-0.1c-0.1,0-0.1,0-0.2,0c-0.1,0-0.3,0.1-0.5,0.1c-0.3,0.2-0.7,0.5-0.9,0.8 c0-0.4,0-0.9,0.1-1.4c0.1-0.2,0.2-0.5,0.4-0.7c0.1-0.1,0.2-0.3,0.3-0.4c0.1-0.1,0.3-0.2,0.4-0.3l-0.2,0.1l0,0l0.8-0.6l1.2,2.6 L73.6,136.3z"/></g><g><path d="M75.5,138.7c-0.2,0-0.5-0.1-0.7-0.3c-2.6-2.3-2.6-2.6-2.7-3c-0.1-0.5,0.3-1,0.9-1.1c0.4-0.1,0.9,0.2,1,0.6 c0.2,0.3,1.2,1.3,2.1,2c0.4,0.4,0.5,1,0.1,1.4C76.1,138.6,75.8,138.7,75.5,138.7z M74.2,135.3C74.2,135.3,74.2,135.3,74.2,135.3 C74.2,135.3,74.2,135.3,74.2,135.3z M74.2,135.3C74.2,135.3,74.2,135.3,74.2,135.3C74.2,135.3,74.2,135.3,74.2,135.3z M74.1,134.9L74.1,134.9L74.1,134.9z"/></g></g><g><g><path d="M43.8,77c0,0-21-0.8-42.8,16.4c0,0-0.4,11.1,0.5,15c0,0,16.8,9.3,35.9,5.5l2.7-3l2.7-4.1l3.3-8.9l0.8-9.9 l-0.4-7.3L43.8,77z" class="st1"/><path d="M27.9,115.9c-14.8,0-26.2-6.3-26.8-6.6l-0.4-0.2l-0.1-0.4c-0.9-4-0.5-14.8-0.5-15.3l0-0.5l0.4-0.3 C22.3,75.4,43,76,43.9,76l0.5,0l3.1,4.5l0.4,7.7l-0.8,10.2l-3.4,9.1l-2.8,4.2l-2.9,3.2l-0.3,0.1C34.3,115.6,31,115.9,27.9,115.9 z M2.5,107.8c2.6,1.3,17.7,8.5,34.5,5.3l2.4-2.7l2.6-3.9l3.2-8.7l0.8-9.7l-0.4-7L43.3,78c-1.5,0-6.1,0.2-12.5,1.7 C23.7,81.5,13,85.4,2.1,93.9C2,96,1.8,104.2,2.5,107.8z" class="st2"/></g><g><path d="M12.3,115.9c0,0,6.3-1.1,9.4-3.5c0,0,0.3-4.3-0.3-5.4c0,0-0.4-0.9,1.1-1l4.7-0.8c0,0,1.6-0.1,1.1,1.5 c0,0,0.7,6.7-2.6,7.4c0,0-3.7,1.4-12.2,2.7C10,116.6,12.3,115.9,12.3,115.9z"/></g><g><path d="M13.5,98.7c0,0-0.4-1.4,1.6-1.4c0,0,26.3-1.8,28.8-3l0.1,2.1c0,0-14.4,1.9-25.1,2.7c0,0,0.8,2.7-1.3,3.3 c0,0-4.2,1.5-12.5,2c0,0-0.4-0.9,0.2-1.2l5-0.7c0,0-0.5-2.8-0.3-3.3C10.8,99,13.5,98.7,13.5,98.7z"/></g><g><path d="M12.3,93.2c0,0,9.7,0.7,15.6-4.2c0,0,0.5-3.8-1.4-6.2l-6,1.8c0,0,0.7,2.6,0.5,4.4c0,0-4.9,3.1-8.7,3.3 C12.3,92.4,12,92.9,12.3,93.2z"/></g></g><g><g><path d="M86.7,117.7c-0.2,0.2-0.4,0.4-0.6,0.6l1-0.6l-1.4,0.9l-2.2,0.6l-0.6,0.2l-1.2,0.8l-0.6-0.1l0,0 c0,0,0,0,0,0c-0.7-0.3-0.9-1.3-0.5-2l2.5-3.7l0.5-0.7c-0.3,0-0.6,0-0.8,0c0,0,0,0,0,0c-0.3,0-0.6-0.1-0.8-0.2c0,0,0,0,0,0 c-0.1,0-0.2-0.1-0.2-0.1c0,0-0.1,0-0.1-0.1c-0.1,0-0.1-0.1-0.2-0.1c0,0-0.1-0.1-0.1-0.1c-0.1-0.1-0.1-0.1-0.2-0.2 c-0.1-0.1-0.2-0.2-0.3-0.3c-0.2-0.2-0.3-0.4-0.4-0.5c-0.1-0.1-0.1-0.2-0.2-0.2c0,0,0,0,0-0.1c-0.2-0.3-0.3-0.6-0.4-0.9 c0,0,0,0,0,0c0-0.1-0.1-0.2-0.1-0.3c0,0,0,0,0,0c0-0.1-0.1-0.2-0.1-0.2c0-0.1-0.1-0.2-0.1-0.3c0-0.1-0.1-0.2-0.1-0.2 c0,0,0,0,0,0c0-0.1,0-0.1,0-0.2c0-0.1,0-0.1,0-0.2l0-2.2c0,0,0,0,0,0l0.6-1l0.6-1.1c0,0,0,0,0,0l1.5-1.1c0,0,0,0,0,0l0.1-2 c0,0,0-0.1,0-0.1l-1.4-12.4l-0.2-2l-0.2-1.6c0,0,0-0.1,0-0.1c0-0.2,0-0.3-0.1-0.5c0-0.1,0-0.1,0-0.2L78.2,73c0,0,0,0,0-0.1 c-0.1-0.4-0.1-0.9-0.2-1.3c-0.1-0.4-0.1-0.8-0.2-1.2c-0.1-0.8-0.3-1.6-0.4-2.4l-0.9-4.5l0,0.3l0,0l-1,7.7c0,0,0,0,0,0.1L75,75.9 l-0.2,5.7c0,0,0,0.1,0,0.1l-0.2,6.4l-0.1,2.3l0,1l0,0.1l0,0.7l-0.7,12.2l-0.3,0l-0.3,0l-8.7-0.8L47,103.5l0,0l-1.2,0l-1.8,0.3 l-2.6,0.5l1-2.1l-0.1-0.5c0,0,0,0,0,0l2.2-7.8l-0.3-17.5l-8.5,0.8l-0.6-3.1l1.2-17.3l2.9-7.7l5.9-5.1l8.5-3.2l3.5-4L73,36 c-0.2,0.4,0.2-0.5,0,0c1.1-0.2,9.5-1.9,10.7,4.6c1.3,6.9,1.4,8.2,1.4,8.2c2.1,7.8,2.9,16.3,3.1,24c0.2,0,0,0.6,0.2,0.6L88,84.3 L87.8,88L86,102.3l-0.3,2.7c0.1,0.8,0.3,1.1,0.3,1.1l4.8,7.3L86.7,117.7z" class="st427"/></g><g><path d="M70.7,142.8c0,0-0.1,0-0.1,0c-0.8-0.1-1.5-0.8-1.4-1.6l2.5-37c0.1-0.8,0.8-1.4,1.6-1.4c0.8,0.1,1.5,0.8,1.4,1.6l-2.5,37 C72.1,142.2,71.4,142.8,70.7,142.8z"/></g><g><path d="M73.5,104.3c0,0,1.3-29.8,3.7-50.2" class="st427"/><path d="M73.5,105.3C73.5,105.3,73.5,105.3,73.5,105.3c-0.6,0-1-0.5-1-1c0-0.3,1.3-30,3.7-50.3c0.1-0.5,0.6-0.9,1.1-0.9 c0.5,0.1,0.9,0.6,0.9,1.1c-2.4,20.2-3.7,49.9-3.7,50.1C74.5,104.9,74,105.3,73.5,105.3z"/></g><g><path d="M73.2,104c0,0-22.6-2.3-32.4,0.6c0,0-10.4,24.3-11.2,37.3l20.5-0.2l2.6-15.9l2.4,16.7 c0,0,9.2-1.9,15.7-0.9" class="st428"/><path d="M54.3,143.7l-1.6-11.4l-1.7,10.4L28.6,143l0.1-1.1c0.8-13,10.8-36.6,11.2-37.6l0.2-0.4l0.4-0.1c9.9-3,31.9-0.8,32.8-0.7 c0.5,0.1,0.9,0.5,0.9,1.1c-0.1,0.5-0.5,0.9-1.1,0.9c-0.2,0-21.8-2.2-31.6,0.5c-1.3,3.2-9.7,23.5-10.8,35.4l18.5-0.2l3.6-21.4 l3.2,22c2.6-0.5,9.6-1.5,15-0.7c0.5,0.1,0.9,0.6,0.8,1.1c-0.1,0.5-0.6,0.9-1.1,0.8c-6.2-0.9-15.2,0.9-15.3,0.9L54.3,143.7z"/></g><g><path d="M83.1,114.3c-2.9,0-4-3.5-4.3-4.6c-0.1-0.2-0.1-0.3-0.1-0.3c-0.1-0.7-0.1-1.4,0-2.1l0-0.1l0.1-0.1 c0.5-1.9,2.2-2.9,2.8-3.3c0-0.4,0-1,0-1.7c0,0,0-0.1,0-0.2c-0.1-3-0.7-8.4-1.8-16l-0.1-0.8c-0.5-3.5-1.1-7.3-1.9-12.1l-0.8-4.9 c-0.5-3-0.9-4.9-0.9-4.9c0-0.3,0.1-0.5,0.4-0.6c0.3,0,0.5,0.1,0.6,0.4c0,0,0.3,1.9,0.9,4.9l0.8,4.9c0.8,4.8,1.4,8.6,1.9,12.1 l0.1,0.8c1.1,7.6,1.7,13,1.8,16.1l0,0.1c0,0.9,0,1.6-0.1,2.1l0,0.2l-0.2,0.1c-0.3,0.1-2.1,1-2.6,2.9l0,0.1 c-0.1,0.5-0.1,1.1,0,1.7c0,0,0,0.1,0.1,0.2c0.3,1,1.3,4.3,3.8,3.9c0.3,0,0.5,0.1,0.6,0.4c0,0.3-0.1,0.5-0.4,0.6 C83.5,114.3,83.3,114.3,83.1,114.3z"/></g><g><path d="M81.5,120.7c-0.1,0-0.1,0-0.2,0l0,0l0,0c-0.1,0-0.2,0-0.3-0.1l-0.4-0.1l0-0.1c-0.3-0.2-0.5-0.6-0.6-1 c-0.2-0.6-0.1-1.1,0.3-1.6l3.5-5.3c0.2-0.2,0.5-0.3,0.7-0.1c0.2,0.2,0.3,0.5,0.1,0.7l-3.5,5.3c-0.2,0.2-0.2,0.5-0.1,0.7 c0.1,0.2,0.2,0.4,0.3,0.4l0.1,0c0.1,0,0.2,0,0.3,0c0.2,0,0.3-0.1,0.5-0.3c0,0,1.8-1.6,3.8-5.1c0.1-0.2,0.4-0.3,0.7-0.2 c0.2,0.1,0.3,0.4,0.2,0.7c-2,3.7-3.9,5.3-4,5.4c-0.3,0.3-0.6,0.4-0.9,0.5C81.8,120.7,81.7,120.7,81.5,120.7z"/></g><g><path d="M83.8,119.7c-0.2,0-0.3,0-0.3,0c-0.3,0-0.5-0.3-0.4-0.6s0.3-0.5,0.6-0.4c0,0,0.5,0.1,1.2-0.2c0.3-0.1,0.7-0.3,1-0.6 c0,0,0,0,0.1,0c0.2-0.2,0.3-0.3,0.4-0.5l3.9-4.1l-4.6-7c0-0.1-0.3-0.4-0.3-1.3c-0.1-1.1,0.1-2.5,0.6-4.3c0,0,0.8-5,1.4-12.3 c0.1-0.7,0.1-1.4,0.1-2.2c0.3-4.6,0.4-9.1,0.3-13.4c-0.2-9-1.3-17.1-3.1-23.9c0-0.1-0.2-1.4-1.4-8.2c-0.3-1.5-1-2.6-2.1-3.4 c-2.8-1.9-7.4-0.9-8-0.8l-0.1,0c-0.3,0.1-0.5-0.1-0.6-0.4c-0.1-0.3,0.1-0.5,0.4-0.6l0.1,0c0.9-0.2,5.6-1.1,8.7,0.9 c1.4,0.9,2.2,2.3,2.6,4.1c1.2,6.9,1.4,8.1,1.4,8.2c1.9,6.8,2.9,15,3.1,24.1c0.1,4.4,0,8.9-0.3,13.5c0,0.7-0.1,1.5-0.1,2.2 c-0.6,7.4-1.4,12.4-1.4,12.4c-0.5,2.1-0.6,3.3-0.5,4c0,0.6,0.2,0.8,0.2,0.8l4.8,7.3c0.1,0.2,0.1,0.5-0.1,0.6l-4.2,4.3 c-0.2,0.2-0.4,0.4-0.6,0.6c0,0,0,0,0,0c-0.4,0.3-0.8,0.6-1.2,0.7C84.6,119.6,84.1,119.7,83.8,119.7z"/></g><g><path d="M35.4,78.5c-0.5,0-0.9-0.4-1-0.9c-0.1-1.3-2.8-31.2,11.5-34.5c0.1,0,7.6-1.7,10.4-6.8c0.3-0.5,0.9-0.7,1.4-0.4 s0.7,0.9,0.4,1.4C54.8,43.1,46.7,45,46.3,45c-12.6,3-10,32.1-10,32.4C36.4,78,36,78.5,35.4,78.5C35.4,78.5,35.4,78.5,35.4,78.5z"/></g><g><path d="M56.1,103.5c0,0-0.1,0-0.1,0c-0.3-0.1-0.4-0.4-0.3-0.6c0-0.1,0.8-2.6,2.7-4.1c0.2-0.2,0.5-0.1,0.7,0.1 c0.2,0.2,0.1,0.5-0.1,0.7c-1.7,1.3-2.3,3.6-2.4,3.6C56.5,103.3,56.3,103.5,56.1,103.5z"/></g><g><path d="M53,103.2c-0.2,0-0.3-0.1-0.4-0.2l-1.4-2c-0.2-0.2-0.1-0.5,0.1-0.7c0.2-0.2,0.5-0.1,0.7,0.1l1.4,2 c0.2,0.2,0.1,0.5-0.1,0.7C53.2,103.2,53.1,103.2,53,103.2z"/></g><g><path d="M40.9,105.4c-0.2,0-0.4,0-0.5-0.2c-0.5-0.3-0.6-0.9-0.3-1.4c0-0.1,3.5-5.6,3.8-13.9c0-0.1-0.3-19.2-3-27 c-0.2-0.5,0.1-1.1,0.6-1.3c0.5-0.2,1.1,0.1,1.3,0.6c2.8,8.1,3.1,26.9,3.1,27.6c-0.3,8.9-4,14.7-4.1,15 C41.6,105.2,41.3,105.4,40.9,105.4z"/></g><g><path d="M61.3,63.2c0,0-5.5,11.3-5.7,31.3c0,0,0-1.8-1-1.7C54.6,92.8,53.9,77.9,61.3,63.2z"/></g><g><path d="M63.5,57.6l2.1-6.1c0,0-0.6-0.7-1.1,2.2L63.5,57.6z"/></g><g><path d="M46.3,146.8l-1-0.1c-0.1,0.9-0.1,1.9-0.2,2.9l0.9,0.3c0.4,0.2,0.2,0.6,0,0.6l-0.9-0.3 c-0.1,1.8-0.1,3.5-0.1,5l1.8,0.9c0.4,0.2,0.1,0.6-0.1,0.6l-1.7-0.8c0,1.9,0,3.2,0,3.2s0.1,0.7,0.1,1.8l0.7-0.1 c0.4,0,0.4,0.5,0.2,0.5l-0.9,0.1c0.1,1,0.1,2.2,0.1,3.7l0.6,0.3c0.4,0.2,0.1,0.6-0.1,0.6l-0.5-0.2c0,3.1-0.2,7-0.9,11.3l0.4,0.2 c0.4,0.2,0.1,0.6-0.1,0.6l-0.4-0.2c-0.2,1.1-0.4,2.3-0.6,3.5l0.8,0.4c0.4,0.2,0.1,0.6-0.1,0.6l-0.9-0.4 c-0.3,1.2-0.6,2.5-0.9,3.7l0.3,0.3c0.3,0.3-0.1,0.6-0.3,0.5l-0.2-0.2c-0.5,1.5-1,3-1.6,4.5c0,0-3.1,6.4,1.3,8.5 c0,0,10,4.9,0.3,4.7l-7.3-0.4c0,0-3.1-0.7-1.3-5.2c0,0,1.2-2.6,0.6-7.9l-1.5,0.2c-0.2,0-0.4-0.5,0.1-0.6l1.3-0.2l0.1,0.3 c-0.2-1.9-0.6-4-1.3-6.6l-1.3-6.3l-1.3,0.1c-0.2,0-0.4-0.5,0.1-0.6l1.1-0.1l-0.8-3.7c0,0-0.3-1.3-0.5-3.2l-0.7,0.5 c-0.2,0.1-0.5-0.2-0.2-0.5l0.9-0.7c0-0.7,0-1.5,0.1-2.4l-0.7,0.5c-0.2,0.1-0.5-0.2-0.2-0.5l1-0.7c0.2-1.3,0.6-2.7,1.2-4 c0.1-0.2,0.2-0.4,0.3-0.7l-1.2,0.1c-0.2,0-0.4-0.5,0.1-0.6l1.3-0.2l0,0.1c0.5-1.6,0.7-3.4,0.8-5.2l-1.1-1.7 c-0.1-0.2,0.3-0.5,0.5-0.2l0.6,0.9c0-1.6-0.1-3.2-0.3-4.7c-0.1-0.1-0.1-0.2,0-0.3c-0.1-0.8-0.2-1.6-0.3-2.3l-0.6,0.3 c-0.2,0.1-0.5-0.3-0.2-0.5l0.6-0.4c-0.4-2.3-0.8-3.8-0.8-3.8l14.5-0.8c-0.4,0.9-0.6,2.6-0.8,4.4l0.9,0.1 C46.6,146.4,46.5,146.8,46.3,146.8z" class="st427"/></g><g><path d="M76.5,201.1c0.1,1.8-1.6,1.7-1.6,1.7L60.6,203c0,0-4.1,0.2-2.4-5c0,0,0.4-1.1,0-3.2l-1.9-0.3 c-0.4-0.1-0.3-0.6-0.1-0.6l1.9,0.2c-0.1-0.5-0.2-0.9-0.4-1.5c0,0-0.2-0.7-0.6-1.9l-1.7,0.3c-0.4,0-0.4-0.4-0.2-0.5l1.8-0.4 c-0.3-1.1-0.7-2.6-1.1-4.4l-0.8,1.7c-0.2,0.4-0.6,0.1-0.6-0.1l0.9-2l0.4,0.2c-0.4-1.8-0.8-3.9-1.2-6.2l-1.4-0.1 c-0.1,0-0.3-0.5,0-0.5l1.3,0.1c-0.4-3.1-0.7-6.4-0.7-9.7l-1.5,0.9c-0.2,0.1-0.5-0.3-0.2-0.5l1.7-1c0-1,0.1-1.9,0.1-2.9l-1.6-0.8 c-0.2-0.1-0.1-0.6,0.4-0.4l1.3,0.6c0.1-1.4,0.3-2.7,0.6-4l-2-0.6c-0.2-0.1-0.1-0.6,0.3-0.5l1.8,0.5c0.1-0.4,0.2-0.8,0.3-1.2 l0.6-1.9c0.2-0.5,0.4-1,0.5-1.4l-1.8-0.6c-0.2-0.1-0.1-0.6,0.3-0.5l1.7,0.5c0.8-2.4,1.3-4.4,1.7-6.1l-1.6,0.8 c-0.2,0.1-0.5-0.3-0.1-0.5l1.8-0.9l0,0c0.7-4.4,0-6.3,0-6.3l9.8-0.6c0,0,0,1-0.1,2.7l0.7,0c0.4,0,0.4,0.5,0.2,0.5l-0.9,0 c-0.1,1.4-0.2,3.2-0.2,5.2l0.9,0c0.4,0,0.4,0.5,0.2,0.5l-1.1,0c-0.1,2.5-0.2,5.3-0.4,8l0-0.1l1.8,0.9c0.4,0.2,0.1,0.6-0.1,0.6 l-1.8-0.8c-0.3,6.3-0.5,12.6-0.4,15.4c0,0,0,1.7,0.1,4.2l0.9,0.1c0.4,0.1,0.3,0.6,0.1,0.6l-1-0.1c0.1,2.6,0.4,5.9,1,9l1.7,0.2 c0.4,0.1,0.3,0.6,0.1,0.6l-1.6-0.2c0.8,3.8,2.1,7,4.2,7.7l3.6,1.6C76.8,199,76.5,201.1,76.5,201.1z" class="st427"/></g><g><path d="M54.9,47.3c0,0,3.8,1,4.2,1.6c0,0,0-0.7,0.3-0.9C59.4,47.9,57.2,46.8,54.9,47.3z"/></g><g><g><path d="M43.1,204.3c-0.2,0-0.5,0-0.7,0l-7.4-0.5c-0.5-0.1-1.5-0.6-2-1.6c-0.6-1.2-0.5-2.7,0.2-4.5c0-0.1,1.1-2.5,0.6-7.6 c0-0.1,0-0.2,0-0.2c-0.2-2-0.7-4.2-1.3-6.5l-2.2-10.6c0,0-0.4-1.3-0.5-3.3c0-0.2,0-0.5,0-0.7c0-0.9,0-1.7,0.1-2.5 c0-0.2,0-0.5,0.1-0.7c0.2-1.6,0.7-3.1,1.3-4.3c0.1-0.2,0.2-0.4,0.2-0.6l0-0.1c0-0.1,0.1-0.2,0.1-0.3c0.4-1.4,0.7-3.1,0.7-5 c0-0.3,0-0.7,0-1c0-1.5-0.1-3-0.3-4.6l0-0.3c-0.1-0.8-0.2-1.6-0.3-2.3c0-0.2-0.1-0.4-0.1-0.6c-0.4-2.2-0.7-3.7-0.7-3.7 l-0.2-0.9l16.5-1l-0.4,1.1c-0.2,0.5-0.5,1.7-0.7,4.2l0,0.5c-0.1,0.9-0.1,1.9-0.2,2.9c0,0.2,0,0.4,0,0.5c-0.1,2-0.1,3.8-0.1,5 c0,0.2,0,0.4,0,0.6c0,1.9,0,3.2,0,3.3c0,0,0.1,0.7,0.1,1.8c0,0.2,0,0.4,0,0.6c0.1,1.1,0.1,2.4,0.1,3.7v0.6 c0,3.9-0.3,7.8-0.9,11.4l-0.1,0.6c-0.2,1.2-0.4,2.3-0.6,3.5l-0.1,0.6c-0.3,1.3-0.6,2.5-1,3.8l-0.2,0.6c-0.5,1.6-1,3.1-1.6,4.6 c0,0.1-1.6,3.4-0.8,5.7c0.3,0.8,0.9,1.4,1.7,1.8c2,1,5.4,2.9,4.9,4.6C47.1,203.8,45.8,204.3,43.1,204.3z M35.2,202.4l7.2,0.4 c2.6,0.1,3.3-0.3,3.5-0.4c-0.2-0.6-2.1-1.9-4.1-2.9c-1.2-0.5-2.1-1.4-2.5-2.6c-1.1-2.9,0.7-6.7,0.8-6.8 c0.6-1.4,1.1-2.8,1.5-4.4l0.2-0.6c0.3-1.2,0.7-2.5,0.9-3.7l0.1-0.6c0.2-1.1,0.5-2.3,0.6-3.4l0.1-0.6c0.5-3.6,0.8-7.4,0.9-11.2 v-0.6c0-1.3,0-2.5-0.1-3.6c0-0.2,0-0.3,0-0.5c-0.1-1.2-0.1-1.9-0.1-1.9c0-0.1,0-1.4,0-3.3c0-0.2,0-0.4,0-0.6c0-1.2,0-3,0.1-5 c0-0.2,0-0.4,0-0.6c0-1,0.1-2,0.2-2.9l0-0.5c0.1-1.5,0.3-2.7,0.5-3.6l-12.5,0.7c0.1,0.7,0.4,1.7,0.6,3c0,0.2,0.1,0.4,0.1,0.6 c0.1,0.7,0.2,1.5,0.3,2.3l0,0.3c0.2,1.6,0.3,3.3,0.3,4.8c0,0.3,0,0.7,0,1.1c-0.1,2-0.3,3.9-0.8,5.4c0,0.1-0.1,0.3-0.1,0.4 l0,0.1c-0.1,0.3-0.2,0.5-0.3,0.7c-0.6,1.2-1,2.4-1.2,3.8c0,0.3-0.1,0.5-0.1,0.7c-0.1,0.7-0.1,1.5-0.1,2.3c0,0.2,0,0.4,0,0.6 c0.1,1.8,0.4,3.1,0.4,3.1l2.2,10.6c0.7,2.3,1.1,4.6,1.3,6.6c0,0.1,0,0.2,0,0.3c0.6,5.5-0.6,8.2-0.7,8.3 c-0.5,1.4-0.6,2.5-0.2,3.3C34.6,202.1,35.1,202.3,35.2,202.4z"/></g><g><path d="M33.8,146.2l-1.3,0.8l-0.6,0.3c-0.2,0.1-0.5-0.3-0.2-0.5l0.6-0.4l1.1-0.7L33.8,146.2z"/></g><g><path d="M46.6,156.6l-1.7-0.8l-0.3-0.1l0.3-0.5l0,0l1.8,0.9C47.1,156.2,46.8,156.6,46.6,156.6z"/></g><g><path d="M38.3,149.5l-0.9,1.8c-0.2,0.4-0.6,0.1-0.6-0.1l0.9-2L38.3,149.5z"/></g><g><path d="M46.3,146.8l-1-0.1l-1.1-0.1l0.1-0.6l1.1,0.1l0.9,0.1C46.6,146.4,46.5,146.8,46.3,146.8z"/></g><g><path d="M45.9,150.5l-0.9-0.3l-1.2-0.3l0.2-0.5l1,0.3l0.9,0.3C46.4,150.1,46.2,150.5,45.9,150.5z"/></g><g><path d="M37.6,158.2l-0.9,1.8c-0.2,0.4-0.6,0.1-0.6-0.1l0.9-2L37.6,158.2z"/></g><g><path d="M39.8,172.6l0.1,2c0,0.4-0.5,0.4-0.5,0.2l-0.2-2.2L39.8,172.6z"/></g><g><path d="M42.4,168.5l0.1,2c0,0.4-0.5,0.4-0.5,0.2l-0.2-2.2L42.4,168.5z"/></g><g><path d="M38.5,164.8l0.1,1.3c0,0.3-0.3,0.2-0.4,0.1l-0.1-1.4L38.5,164.8z"/></g><g><path d="M36.3,168.9l0.1,1.3c0,0.3-0.3,0.2-0.4,0.1l-0.1-1.4L36.3,168.9z"/></g><g><path d="M40.3,155l0.1,2c0,0.4-0.5,0.4-0.5,0.2l-0.1-2.2L40.3,155z"/></g><g><path d="M46,161.3l-0.9,0.1l-1.3,0.2l0-0.6l1.3-0.2l0.7-0.1C46.2,160.7,46.2,161.2,46,161.3z"/></g><g><path d="M45.6,165.9l-0.5-0.2l-1.5-0.7l0.3-0.5l1.3,0.6l0.6,0.3C46.1,165.6,45.8,166,45.6,165.9z"/></g><g><path d="M35.3,163.9l-0.2,2c-0.1,0.4-0.6,0.3-0.6,0.1l0.2-2.2L35.3,163.9z"/></g><g><path d="M40.8,177.4l-0.2,2c-0.1,0.4-0.6,0.3-0.6,0.1l0.2-2.2L40.8,177.4z"/></g><g><path d="M35.1,178.3l0.7,1.9c0.1,0.4-0.4,0.5-0.5,0.3l-0.8-2.1L35.1,178.3z"/></g><g><path d="M38.9,183.4l-0.5,2c-0.1,0.4-0.6,0.2-0.6,0l0.5-2.1L38.9,183.4z"/></g><g><path d="M44.6,177.7l-0.4-0.2l-1.6-0.7l0.3-0.5l1.4,0.7l0.4,0.2C45.1,177.4,44.8,177.8,44.6,177.7z"/></g><g><path d="M44.3,182l-0.9-0.4l-1.2-0.5l0.3-0.5l1,0.5l0.8,0.4C44.8,181.7,44.5,182.1,44.3,182z"/></g><g><path d="M39.2,188.7l1.1,1.7c0.2,0.4-0.3,0.6-0.4,0.4l-1.2-1.8L39.2,188.7z"/></g><g><path d="M36.2,187.6l-1.2,1.6c-0.3,0.3-0.6,0-0.5-0.2l1.3-1.8L36.2,187.6z"/></g><g><path d="M42.6,186.1l-0.2-0.2l-1.4-1.3l0.4-0.4l1.1,1.1l0.3,0.3C43.1,186,42.7,186.3,42.6,186.1z"/></g><g><path d="M33.6,155.1l-0.5,0.4l-0.1-0.1l-1.1-1.7c-0.1-0.2,0.3-0.5,0.5-0.2l0.6,0.9L33.6,155.1z"/></g><g><path d="M31.6,165.6l-1.1,0.8l-0.7,0.5c-0.2,0.1-0.5-0.2-0.2-0.5l1-0.7l0.6-0.5L31.6,165.6z"/></g><g><path d="M31.5,168.7l-1,0.8l-0.7,0.5c-0.2,0.1-0.5-0.2-0.2-0.5l0.9-0.7l0.7-0.5L31.5,168.7z"/></g><g><path d="M32.4,160.9l-0.3,0l-1.2,0.1c-0.2,0-0.4-0.5,0.1-0.6l1.3-0.2l0,0.1L32.4,160.9z"/></g><g><path d="M35.2,155.4l-1.3,0.2c-0.4,0.1-0.3,0.6-0.1,0.6l1.5-0.2L35.2,155.4z"/></g><g><path d="M34.4,170.9l-1.3,0.2c-0.4,0.1-0.3,0.6-0.1,0.6l1.5-0.2L34.4,170.9z"/></g><g><path d="M39.7,147.4l0.5,1.2c0.2,0.4,0.6,0.1,0.6-0.1l-0.6-1.4L39.7,147.4z"/></g><g><path d="M40.2,144.3l0.5,1.2c0.2,0.4,0.6,0.1,0.6-0.1l-0.6-1.4L40.2,144.3z"/></g><g><path d="M34.4,149l-1.3,0.6c-0.1,0-0.2,0-0.2-0.1c-0.1-0.1-0.1-0.2,0-0.3c0-0.1,0.1-0.1,0.1-0.2l1.2-0.6L34.4,149z"/></g><g><path d="M34.5,190L34.5,190l-1.5,0.2c-0.2,0-0.4-0.5,0.1-0.6l1.3-0.2l0.1,0.3L34.5,190z"/></g><g><path d="M32,176.9l-0.2,0l-1.3,0.1c-0.2,0-0.4-0.5,0.1-0.6l1.1-0.1l0.2,0L32,176.9z"/></g><g><path d="M36.1,172.8l-0.7,1.1c-0.2,0.4,0.3,0.6,0.4,0.4l0.8-1.2L36.1,172.8z"/></g><g><path d="M37,190.8l0.1,1.3c0.1,0.4,0.6,0.3,0.6,0.1l-0.1-1.5L37,190.8z"/></g><g><path d="M33.6,174.3l-1,0.8c-0.3,0.3,0,0.6,0.2,0.5l1.2-0.9L33.6,174.3z"/></g><g><path d="M34.8,183l-1,0.8c-0.3,0.3,0,0.6,0.2,0.5l1.2-0.9L34.8,183z"/></g></g><g><g><path d="M56.5,155.4l-0.1,0.6l-0.3-0.1l-1.8-0.6c-0.2-0.1-0.1-0.6,0.3-0.5l1.7,0.5L56.5,155.4z"/></g><g><path d="M68.5,150.7l-1.1,0l-1.1,0l0-0.6l1.1,0l0.9,0C68.8,150.2,68.7,150.7,68.5,150.7z"/></g><g><path d="M68.6,145l-0.9,0l-1.3,0l0-0.6l1.3,0l0.7,0C68.9,144.5,68.8,145,68.6,145z"/></g><g><path d="M68.8,160.2l-1.8-0.8l-0.2-0.1l0.2-0.4l0-0.1l1.8,0.9C69.3,159.8,69,160.2,68.8,160.2z"/></g><g><path d="M62.1,186.2l-0.8,1.8c-0.2,0.4-0.6,0.1-0.6-0.1l0.9-2L62.1,186.2z"/></g><g><path d="M57.8,161.8l0.1,2c0,0.4-0.5,0.4-0.5,0.2l-0.1-2.2L57.8,161.8z"/></g><g><path d="M60.7,154.8l-0.6,1.9c-0.2,0.4-0.6,0.2-0.6,0l0.7-2.1L60.7,154.8z"/></g><g><path d="M60.5,203.8c-0.3,0-1.9-0.1-2.8-1.3c-0.8-1.1-0.9-2.6-0.2-4.7c0,0,0.3-1,0-2.8c0-0.2-0.1-0.4-0.1-0.6 c-0.1-0.5-0.2-0.9-0.4-1.4l0,0c0,0-0.2-0.7-0.6-1.9c-0.1-0.2-0.1-0.4-0.2-0.6c-0.3-0.9-0.7-2.4-1.1-4.4c0-0.1,0-0.2-0.1-0.2 c-0.5-2-0.9-4.1-1.2-6.2l-0.1-0.5c-0.5-3.5-0.8-6.8-0.7-9.9l0-0.1c0-0.2,0-0.4,0-0.6c0-1,0.1-2,0.1-3l0.1-0.6 c0.1-1.5,0.4-2.9,0.6-4.1c0-0.2,0.1-0.4,0.1-0.6c0.1-0.4,0.2-0.8,0.3-1.2l0.6-1.9c0.2-0.5,0.4-1,0.5-1.5 c0.1-0.2,0.1-0.3,0.2-0.4c0.8-2.2,1.3-4.2,1.7-6.1c0-0.2,0.1-0.4,0.1-0.6c0.7-4.1,0.1-5.9,0-5.9l-0.3-0.9l1-0.1l10.6-0.6 l-0.5,9.8c-0.1,2.5-0.2,5.3-0.4,8.1l0,0.5c-0.2,5.3-0.5,12.3-0.4,15.3c0,0,0,1.7,0.1,4.1c0,0.2,0,0.3,0,0.5 c0.1,2.4,0.4,5.8,1,9l0.1,0.6c1.1,5.3,2.6,6.8,3.7,7.2l3.6,1.6c1.5,0.8,1.4,3,1.3,3.4c0,0.9-0.3,1.5-0.6,1.8 c-0.7,0.7-1.7,0.7-1.8,0.7L60.5,203.8C60.6,203.8,60.6,203.8,60.5,203.8z M59,143c0.2,1,0.3,2.9-0.2,5.7c0,0.2-0.1,0.4-0.1,0.7 c-0.4,1.9-0.9,4-1.7,6.2c-0.1,0.2-0.1,0.4-0.2,0.6c-0.2,0.4-0.3,0.9-0.5,1.4l-0.6,1.9c-0.1,0.4-0.2,0.8-0.3,1.2 c0,0.2-0.1,0.4-0.1,0.5c-0.3,1.2-0.5,2.6-0.6,4l0,0.5c-0.1,1-0.1,2-0.1,2.9c0,0.2,0,0.4,0,0.5l0,0.1c0,3,0.2,6.2,0.7,9.6 l0.1,0.5c0.3,2.1,0.7,4.2,1.2,6.2c0,0.1,0,0.1,0,0.2c0.4,2,0.9,3.5,1.1,4.4c0.1,0.2,0.1,0.4,0.2,0.5c0.3,1.2,0.6,1.8,0.6,1.9 c0.2,0.5,0.3,1,0.4,1.5c0,0.2,0.1,0.4,0.1,0.6c0.4,2.2,0,3.4,0,3.6c-0.5,1.5-0.5,2.6,0,3.3c0.6,0.7,1.7,0.7,1.7,0.7l14.3-0.1 c0.1,0,0.5,0,0.7-0.2c0.1-0.1,0.2-0.4,0.2-0.7l0-0.1l0-0.1c0.1-0.5,0-1.7-0.5-2l-3.5-1.6c-2.1-0.7-3.6-3.4-4.6-8.3l-0.1-0.6 c-0.6-3.2-0.9-6.7-1-9.1c0-0.2,0-0.4,0-0.6c-0.1-2.4-0.1-4.1-0.1-4.2c-0.1-3,0.2-10.1,0.4-15.4l0-0.5c0.1-2.8,0.2-5.6,0.4-8.1 l0.4-8.2L59,143z"/></g><g><path d="M54.8,160.6l-0.1,0.6l-0.1,0l-2-0.6c-0.2-0.1-0.1-0.6,0.3-0.5l1.8,0.5L54.8,160.6z"/></g><g><path d="M64,173.7l-0.8,1.8c-0.2,0.4-0.6,0.1-0.6-0.1l0.9-2L64,173.7z"/></g><g><path d="M55.9,185.8l-0.1,0.2l-0.8,1.7c-0.2,0.4-0.6,0.1-0.6-0.1l0.9-2l0.4,0.2L55.9,185.8z"/></g><g><path d="M57.3,190.8l-0.3,0.1l-1.7,0.3c-0.4,0-0.4-0.4-0.2-0.5l1.8-0.4l0.4-0.1L57.3,190.8z"/></g><g><path d="M58.4,194.3l-0.1,0.6l-0.1,0l-1.9-0.3c-0.4-0.1-0.3-0.6-0.1-0.6l1.9,0.2L58.4,194.3z"/></g><g><path d="M57.6,168.7l-0.8,1.8c-0.2,0.4-0.6,0.1-0.6-0.1l0.9-2L57.6,168.7z"/></g><g><path d="M63.5,180.9l-0.1,2c-0.1,0.4-0.5,0.3-0.5,0.1l0-2.2L63.5,180.9z"/></g><g><path d="M61,160.2l0.1,1.3c0,0.3-0.3,0.2-0.4,0.1l-0.1-1.4L61,160.2z"/></g><g><path d="M64.1,162.6l0.1,2c0,0.4-0.5,0.4-0.5,0.2l-0.1-2.2L64.1,162.6z"/></g><g><path d="M63.1,145.7l0.1,2c0,0.4-0.5,0.4-0.5,0.2l-0.1-2.2L63.1,145.7z"/></g><g><path d="M64.3,155l0.1,2c0,0.4-0.5,0.4-0.5,0.2l-0.1-2.2L64.3,155z"/></g><g><path d="M62,144.8l-1.1,1.7c-0.3,0.3-0.6,0-0.5-0.2l1.2-1.9L62,144.8z"/></g><g><path d="M60.5,169.1l0.7,1.9c0.1,0.4-0.4,0.5-0.5,0.3l-0.8-2.1L60.5,169.1z"/></g><g><path d="M69.5,189.2l-1.6-0.2l-0.6-0.1l0.1-0.6l0.3,0l1.7,0.2C69.9,188.8,69.7,189.3,69.5,189.2z"/></g><g><path d="M67.8,179.6l-1-0.1l-1.2-0.1l0.1-0.6l1,0.1l0.9,0.1C68.1,179.1,68,179.6,67.8,179.6z"/></g><g><path d="M59.5,178.9l0.1,2c0,0.4-0.5,0.4-0.5,0.2l-0.1-2.2L59.5,178.9z"/></g><g><path d="M54.1,169.1l-0.4,0.2l-1.5,0.9c-0.2,0.1-0.5-0.3-0.2-0.5l1.7-1l0,0L54.1,169.1z"/></g><g><path d="M54.5,165.4l-0.2,0.5l-0.4-0.2l-1.6-0.8c-0.2-0.1-0.1-0.6,0.4-0.4l1.3,0.6L54.5,165.4z"/></g><g><path d="M54.8,179.6l-0.2,0l-1.4-0.1c-0.1,0-0.3-0.5,0-0.5l1.3,0.1l0.1,0L54.8,179.6z"/></g><g><path d="M58.4,149.1l-0.4,0.2l-1.6,0.8c-0.2,0.1-0.5-0.3-0.1-0.5l1.8-0.9l0,0L58.4,149.1z"/></g></g></g><g><path d="M82.8,4.9c0,0-0.4,1.9,0,4.2c0,0,0.2,0.2,0,2c0,0-0.4,2.7,0.3,4.3c0,0-0.1,2.1-0.1,3.5 c0,0-0.7,5.6-0.1,6.4c0,0,0.3,2.3-0.3,4.1L82.2,35c0,0-0.6,1.1-1.1-0.4c0,0,0.2-5.1,0.6-5.3c0,0,0.6-2.2,0-3.6 c0,0-0.3-1.8-0.2-2.8c-0.2,0.7-0.5,2-0.4,2.9c0,0-0.5,6.4-0.9,7.9l-0.1,1c0,0-0.6,1.4-0.8-0.3c0,0,0.3-1.6,0.5-3.3 c0.2-1.7,0.2-1.7,0.2-1.7l0.2-2.7c0,0-0.9,3.9-0.9,4.2c0.1,0.2-1.8,2.4-1.6,4.9c0,0-0.7,0.9-0.5-0.8c0,0,0.4-1.9,0.7-2.7 c-0.2,0.4-0.9,1.8-1.2,2.5c-0.3,0.8-0.8,2-0.8,2s-0.5,0.2-0.2-0.5l0.9-2.2c0,0,0.2-0.5,0.2-1c0,0-0.9,1.1-2,4.8 c0,0-0.4,1.1-1,2.6c-0.2,0.4-0.3,0.9-0.5,1.4c0,0.1-0.1,0.2-0.1,0.3c-1,2.7-2.3,5.9-3.1,6.9c0,0-0.4,0.1-0.1-1.1l0.7-2 c0,0-1.2,0.7-1.1-1.1l0.3-2.9L69,42l-0.3,3.7c0,0-0.7,1.7-1-0.4l0.1-1.3c0,0-0.8-0.4-0.8-1.3c0,0-1.4,0.6-1-1.5l0.1-1.2l0-0.6 c0,0-1.2-0.2-1.7,0.3c0,0,0,0.1,0,0.3c0.1,0.7,0.3,2.8,0.7,4c0,0,0.3,1.3-0.2,1.4c0,0-0.8,0.2-0.8-1.4l-0.6-3.1 c0,0-0.4-0.9-0.4,0.2l0.8,3.7c0,0,0.5,1.4-0.1,1.6c0,0-0.8,0.3-0.9-1.3c0,0-0.3-2.2-0.8-5c0-0.1,0-0.2-0.1-0.3 c-0.1-0.3-0.4-0.2-0.5,0c-0.1,0.1-0.1,0.3-0.1,0.4c0,0,0,2.7,0.2,3.5c0,0,0.2,1.9,0.2,2.1c0.1,0.2,0.5,2-0.6,2.2 c0,0-1.2,0.5-1.6-2.1l-0.7-3.6c0,0-0.2-1.5-0.4,0.3c0,0,0.3,2.4-0.5,2.7c0,0-0.5,0.7-0.9-1.8c0,0-0.1-0.2-0.1-0.6 c-0.1-0.6-0.3-1.6-0.5-2.5l-0.2-1l-1.1-6.7c0,0-0.4-0.9-0.3,0.3l0.4,2.7c0,0,0.1,0.4-0.5,0.6c0,0-0.5,0.1-0.6-1.2L54,30.9 c0,0-0.1,6.3,0.1,7.4c0,0,0.3,0.8,0,0.9c0,0-0.8,0.4-0.9-1.2c0,0-0.7-11.5-0.5-13.5l0-2.1c0,0-0.4-0.6-0.5,5.1c0,0,0.1,5.7,0.5,8 c0,0,0.5,3.8,0.8,5.5c0.1,0.4,0.1,0.6,0.2,0.8l0.2,1c0,0,0.5,0.8-0.1,1c0,0-0.7,0.4-0.8-1.1c0,0-0.1-0.4-0.2-1 c-0.5-2.3-1.7-7.9-1.3-11c0,0,0.1-9.9,0.3-10c0,0,0.1-3.8-0.4-5.4c0,0-0.4-2.9,0.9-2.9c0,0,0.5-0.3-0.6-1c0,0-1.4-0.5,0.1-2L57,4 c0,0,1.3-1.7,2.9-1.7c0,0,0.6,0.1,1.5-1.1c0,0,1.9-2.5,4.8-0.3c0,0,9,3.3,12.7,2.2C78.8,3.1,85.2,0.4,82.8,4.9z" class="st429"/></g></g></g></svg>